<svg xmlns="http://www.w3.org/2000/svg" width="23" height="20" viewBox="0 0 23 20">
  <g id="ticket.bookingdetails_icon" transform="translate(-1670 -636)">
    <g id="bookingdetails_icon" transform="translate(2402.204 -35)">
      <path id="패스_11" data-name="패스 11" d="M-712.651,674.218a.855.855,0,0,0-.661-.344H-714.9V672.52a.476.476,0,0,0-.414-.52h-.872a.476.476,0,0,0-.414.52v2.892a.476.476,0,0,0,.414.52h.872a.381.381,0,0,0,.3-.168.381.381,0,0,1-.3.168h-.872a.476.476,0,0,1-.414-.52v-1.539h-6.638V672.52a.476.476,0,0,0-.414-.52h-.872a.476.476,0,0,0-.414.52v1.353h-1.587a.856.856,0,0,0-.661.344,1.351,1.351,0,0,0-.274.831v2.866h15.08v-2.866A1.348,1.348,0,0,0-712.651,674.218Zm-2.662,1.194h-.872V672.52h.872Zm-9.209-2.892h.872v2.892h-.872Zm.872,3.412h-.872a.381.381,0,0,1-.3-.168.381.381,0,0,0,.3.168h.872a.387.387,0,0,0,.319-.189.534.534,0,0,0,.031-.055.534.534,0,0,1-.031.055A.387.387,0,0,1-723.65,675.932Z" transform="translate(-0.701)" fill="#fff"/>
      <path id="패스_12" data-name="패스 12" d="M-728.2,790.427v9.088a1.828,1.828,0,0,0,1.828,1.828h11.417a1.828,1.828,0,0,0,1.828-1.828v-9.088Zm11.188,3.11-4.494,4.494-.134-.134h0l-2.673-2.672a.453.453,0,0,1,0-.641.453.453,0,0,1,.641,0l2.166,2.166,3.854-3.854a.453.453,0,0,1,.641,0h0A.453.453,0,0,1-717.016,793.537Z" transform="translate(0 -111.21)" fill="#fff"/>
    </g>
    <rect id="사각형_383" data-name="사각형 383" width="23" height="20" transform="translate(1670 636)" fill="none"/>
  </g>
</svg>
