<svg xmlns="http://www.w3.org/2000/svg" width="56" height="25.56" viewBox="0 0 56 25.56">
  <path id="ticket_logo" d="M-60.452,392.61c-.1-.173-.221-.339-.332-.507a12.863,12.863,0,0,0-6.37-5.092c-.315-.117-.643-.221-.976-.318-.032-.01-.062-.021-.1-.031a17.62,17.62,0,0,0-4.165-.635,23.586,23.586,0,0,0-2.71.055c-.378.028-.754.053-1.148.1-.844.1-1.694.183-2.547.262-1.554.144-3.116.254-4.676.339-1.248.069-2.495.124-3.732.161-5.9.178-11.592.019-16.319-.24-1.415-.077-2.752-.163-3.974-.251l-.55-.041c-.886-.066-1.716-.133-2.471-.2l-.734-.064c-.945-.085-1.752-.165-2.415-.234-.491-.05-.9-.1-1.224-.131-.53-.06-.924-.1-.924-.1a1.675,1.675,0,0,0,.283.347c.262.281.534.556.819.825.332.312.682.615,1.045.91.308.25.625.5.953.734l.05.034a24.218,24.218,0,0,0,3.926,2.28c.084.04.164.082.249.12a28.973,28.973,0,0,0,4.036,1.463,33.478,33.478,0,0,0,9.158,1.257,34.84,34.84,0,0,0,3.568-.189,21,21,0,0,1-10.751,2.716c-.658,0-1.305-.028-1.941-.078-1.092-.114-2.167-.265-3.206-.478l-.1-.021c-.184-.04-.367-.083-.55-.123-.337-.085-.575-.133-.9-.232a16.166,16.166,0,0,0,1.947,1.423,27.686,27.686,0,0,0,9.54,3.619,34.122,34.122,0,0,0,6.766.674,34.139,34.139,0,0,0,5.1-.39,22.365,22.365,0,0,1-11.5,2.948,25.7,25.7,0,0,1-3.548-.245.07.07,0,0,0-.05.128,29.559,29.559,0,0,0,16.2,4.551,32.468,32.468,0,0,0,7.182-.807l.02.047c-3.448,2.217-8.546,2.973-10.064,3.155a.078.078,0,0,0-.01.153,27.866,27.866,0,0,0,6.351.727,24.2,24.2,0,0,0,5.31-.284,9.156,9.156,0,0,0,1.964-.678c3.522-1.616,3.576-4.919,3.249-6.873a5.461,5.461,0,0,0-.382-1.514l-.012-.033h0a8.1,8.1,0,0,0-2.335-3.01,5.43,5.43,0,0,0-2.7-1.281,12.218,12.218,0,0,0-1.78-.277,19.079,19.079,0,0,0-3.623.061s-.665-4.306,7.442-4.778h.017a12.007,12.007,0,0,1,4.614-1.926l.029-.005a10.991,10.991,0,0,1,1.772-.158,11.052,11.052,0,0,1,7.863,3.313C-60.011,393.388-60.221,392.992-60.452,392.61Z" transform="translate(115.812 -385.686)" fill="#fff"/>
</svg>
