<svg xmlns="http://www.w3.org/2000/svg" width="23" height="20" viewBox="0 0 23 20">
  <g id="ticket.preferredseatassignment_icon" transform="translate(-1770 -636)">
    <path id="preferredseatassignment_icon" d="M1,18a1,1,0,0,1-1-1V12.077a1,1,0,0,1,1-1H4.832l.693-6.415c.058-.418.078-.415.683-.564l3.9-.3a.779.779,0,0,1,.732.85L9.789,12.234a.708.708,0,0,1-.017.085,1.038,1.038,0,0,1-1.018.835H2.35V17a1,1,0,0,1-1,1ZM6.659,1.731A1.855,1.855,0,0,1,8.618,0a1.855,1.855,0,0,1,1.958,1.731A1.855,1.855,0,0,1,8.618,3.461,1.855,1.855,0,0,1,6.659,1.731Z" transform="translate(1776 637)" fill="#fff"/>
    <rect id="사각형_385" data-name="사각형 385" width="23" height="20" transform="translate(1770 636)" fill="none"/>
  </g>
</svg>
