<svg xmlns="http://www.w3.org/2000/svg" width="618.12" height="114.816" viewBox="0 0 618.12 114.816">
  <g id="cloud" transform="translate(-1088.972 -561.488)">
    <path id="패스_185" data-name="패스 185" d="M1599.057,407.758a8.073,8.073,0,0,0-6.207-3.541,7.96,7.96,0,0,0-4.115.895,13.012,13.012,0,0,0-9.984-5.467,10.93,10.93,0,0,0-9.253,5.028,6.975,6.975,0,0,0-4.88-.133,7.2,7.2,0,0,0-4.112,3.8,8.793,8.793,0,0,0-8.16,4.209,2.264,2.264,0,0,0,1.935,3.372c7.443.255,14.895.267,22.342.285,4.355.011,8.708.144,13.063.205,2.923.041,9.455,1.465,10.573-2.312A7.858,7.858,0,0,0,1599.057,407.758Z" transform="translate(106.591 161.844)" fill="#e9f1f8"/>
    <path id="패스_186" data-name="패스 186" d="M1001.4,431.2a13.6,13.6,0,0,1,10.457-5.965,13.409,13.409,0,0,1,6.933,1.506c3.954-5.314,10.114-9.1,16.821-9.21A18.415,18.415,0,0,1,1051.2,426a11.756,11.756,0,0,1,8.222-.224,12.13,12.13,0,0,1,6.927,6.408,14.814,14.814,0,0,1,13.747,7.091,3.814,3.814,0,0,1-3.26,5.681c-12.54.429-25.094.449-37.64.481-7.337.018-14.671.242-22.007.345-4.924.07-15.929,2.47-17.812-3.894A13.242,13.242,0,0,1,1001.4,431.2Z" transform="translate(90 156)" fill="#e9f1f8"/>
    <path id="패스_187" data-name="패스 187" d="M1181.5,513.931a13.86,13.86,0,0,0-10.655-6.079,13.657,13.657,0,0,0-7.066,1.536c-4.029-5.416-10.307-9.275-17.142-9.386a18.766,18.766,0,0,0-15.886,8.632,11.977,11.977,0,0,0-8.378-.228,12.358,12.358,0,0,0-7.059,6.531,15.1,15.1,0,0,0-14.01,7.225,3.888,3.888,0,0,0,3.323,5.79c12.779.437,25.572.457,38.357.489,7.477.019,14.951.247,22.427.352,5.017.071,16.232,2.517,18.151-3.968A13.494,13.494,0,0,0,1181.5,513.931Z" transform="translate(259 147)" fill="#e9f1f8"/>
  </g>
</svg>
