<svg xmlns="http://www.w3.org/2000/svg" width="184.346" height="150.666" viewBox="0 0 184.346 150.666">
  <g id="information.banner_person" transform="translate(-1363.612 -2743.769)">
    <g id="그룹_54" data-name="그룹 54" transform="translate(1326.308 2454.201)">
      <path id="패스_182" data-name="패스 182" d="M582.565,433.436H516.432A3.57,3.57,0,0,0,512.873,437h0a3.57,3.57,0,0,0,3.559,3.56h66.133a3.57,3.57,0,0,0,3.56-3.56h0A3.57,3.57,0,0,0,582.565,433.436Z" transform="translate(-475.569 -0.322)" fill="#465e7c"/>
      <path id="패스_183" data-name="패스 183" d="M315.4,432.891H257.324a3.57,3.57,0,0,0-3.56,3.56h0a3.57,3.57,0,0,0,3.56,3.559H315.4a3.57,3.57,0,0,0,3.56-3.559h0A3.57,3.57,0,0,0,315.4,432.891Z" transform="translate(-97.311 0.223)" fill="#465e7c"/>
    </g>
    <g id="사람2명" transform="translate(1926.419 2420.893)">
      <g id="그룹_47" data-name="그룹 47" transform="translate(-447.609 325.436)">
        <path id="패스_53" data-name="패스 53" d="M-212.811,689.3a1.892,1.892,0,0,1-1.892,1.892A1.892,1.892,0,0,1-216.6,689.3a1.892,1.892,0,0,1,1.893-1.892A1.892,1.892,0,0,1-212.811,689.3Z" transform="translate(238.935 -546.713)" fill="#354060"/>
        <path id="패스_54" data-name="패스 54" d="M-250.569,689.3a1.892,1.892,0,0,1-1.892,1.892,1.892,1.892,0,0,1-1.893-1.892,1.892,1.892,0,0,1,1.893-1.892A1.892,1.892,0,0,1-250.569,689.3Z" transform="translate(261.854 -546.713)" fill="#354060"/>
        <path id="패스_55" data-name="패스 55" d="M-247,519.543v18.022s1.442.27,1.442,0V519.9Z" transform="translate(257.388 -444.816)" fill="#91bcdb"/>
        <path id="패스_56" data-name="패스 56" d="M-219.034,519.543v18.022s1.442.27,1.442,0V519.9Z" transform="translate(240.415 -444.816)" fill="#91bcdb"/>
        <path id="패스_57" data-name="패스 57" d="M-241.874,505.457c-3.511.149-5.5.811-6.308,1.532s-.451,3.424-.27,4.326,1.8,1.441,2.163.27-.18-2.433.541-3.154,7.029-.36,7.659.27.355,1.923.631,2.613a1.371,1.371,0,0,0,2.163.18c.451-.721.571-3.719-.18-4.6C-236.558,505.637-238.864,505.33-241.874,505.457Z" transform="translate(258.416 -436.249)" fill="#354060"/>
        <path id="패스_58" data-name="패스 58" d="M-226.753,493.827a17.641,17.641,0,0,1-3.064,2.343c-1.8,1.081-2.163,1.351-2.974,1.892s0,.9.631.811,3.514-1.082,3.514-1.082-.541,1.622,0,1.8.9-.36,1.261-1.081,2.253-1.712,3.064-3.154S-226.489,493.429-226.753,493.827Z" transform="translate(248.972 -429.125)" fill="#e8bb9e"/>
        <path id="패스_59" data-name="패스 59" d="M-115.447,497.866a9.351,9.351,0,0,1,.138,2.7c-.138,1.525-.416,2.218.139,2.5s1.109-1.456,1.179-2.149a4.766,4.766,0,0,1,.416,1.941c0,1.109-.456,1.566-.416,2.08s.416.485.416.485a1.185,1.185,0,0,0,.9,0s.22.456.9-.277a.873.873,0,0,0,.554-.555,7.518,7.518,0,0,0,.277-3.327,10.487,10.487,0,0,0-1.664-4.09C-113.3,496.479-115.032,496.964-115.447,497.866Z" transform="translate(177.569 -431.037)" fill="#e8bb9e"/>
        <path id="패스_60" data-name="패스 60" d="M-184.241,682.076a12.184,12.184,0,0,0-5.166,2.4c-.841.721-.241,2.283.481,2.283s7.93,0,8.651-.24.721-3,.12-4.085-1.081-2.043-1.441-1.922S-184.241,682.076-184.241,682.076Z" transform="translate(222.679 -542.521)" fill="#354060"/>
        <path id="패스_61" data-name="패스 61" d="M-179.3,656.355a89.146,89.146,0,0,0,1.441,10.333c.481,1.442,3.845,1.081,4.085.361s.6-11.895.6-11.895Z" transform="translate(216.293 -527.133)" fill="#e8bb9e"/>
        <path id="패스_62" data-name="패스 62" d="M-152.445,682.076a12.184,12.184,0,0,0-5.167,2.4c-.841.721-.24,2.283.481,2.283s7.93,0,8.651-.24.721-3,.12-4.085-1.081-2.043-1.441-1.922S-152.445,682.076-152.445,682.076Z" transform="translate(203.379 -542.521)" fill="#354060"/>
        <path id="패스_63" data-name="패스 63" d="M-147.5,656.355a89.227,89.227,0,0,0,1.442,10.333c.48,1.442,3.845,1.081,4.085.361s.6-11.895.6-11.895Z" transform="translate(196.992 -527.133)" fill="#e8bb9e"/>
        <path id="패스_64" data-name="패스 64" d="M-193.666,491.685s.241,26.433,1.442,38.207,2.523,23.811,3.124,25.231,7.329.961,7.81-.12.24-38.207.24-38.207,4.325,36.164,4.806,38.087,7.089,1.562,7.69.241.841-56.47-.36-63.078-10.212-3.484-10.813-3.725S-193.666,491.685-193.666,491.685Z" transform="translate(225.016 -425.541)" fill="#354060"/>
        <path id="패스_65" data-name="패스 65" d="M-184.68,329.573c-9.849,1.56-10.212,11.053-9.492,16.1s2.523,7.089.841,11.053-4.205,14.9,9.131,15.98,20.065-6.008,18.623-9.252-2.283-2.883-2.4-5.407-2.57-2.778-2.523-9.732S-172.545,327.65-184.68,329.573Z" transform="translate(225.642 -329.39)" fill="#56381e"/>
        <path id="패스_66" data-name="패스 66" d="M-205.58,402.383c-2.141.642-3.343,2.684-4.184,4.006s-2.643,10.813-4.085,16.1-6.053,14.142-6.488,15.139,2.283,2.884,3.845,2.763c0,0,4.085-6.007,5.407-9.732a84.975,84.975,0,0,0,3.364-10.934s-.6,14.658-3.244,19.7c0,0,4.445,5.046,13.457,4.205s13.1-3.725,13.1-3.725-3-21.146-3.124-24.029c0,0,6.728,22.708,7.93,25.231a10.009,10.009,0,0,0,4.566-1.442s-8.05-30.638-10.213-33.641-3.244-3.845-5.765-4.578c-2.352-.685-8.893,1.334-9.373,1.094A39.683,39.683,0,0,0-205.58,402.383Z" transform="translate(241.234 -373.045)" fill="#ce6351"/>
        <path id="패스_67" data-name="패스 67" d="M-179.088,384.789a4.867,4.867,0,0,1-.12,3.6c-.841,1.922-3.506,2.722-3.506,2.722a8.921,8.921,0,0,0,8.072,3.405c5.286-.6,6.49-4.338,6.49-4.338s-3.126-.588-4.087-2.391a17.706,17.706,0,0,1-1.322-5.046Z" transform="translate(218.368 -361.778)" fill="#e8bb9e"/>
        <path id="패스_68" data-name="패스 68" d="M-264.077,563.282c-5.857,0-8.47,3.784-9.191,9.642s.991,33.882,2.163,37.576,6.939,3.6,9.1,3.785,16.58.36,19.013-1.622,2.884-16.4,2.884-27.664-1.622-16.941-2.974-18.923S-248.668,563.282-264.077,563.282Z" transform="translate(273.44 -471.366)" fill="#ce6351"/>
        <path id="패스_69" data-name="패스 69" d="M-167,388.443a6.439,6.439,0,0,0,.718-.139,2.836,2.836,0,0,1-.36-.511,17.7,17.7,0,0,1-1.322-5.046l-5.527,2.042a4.779,4.779,0,0,1,.244,2.291,9.283,9.283,0,0,0,1.957.855A10.064,10.064,0,0,0-167,388.443Z" transform="translate(212.767 -361.778)" fill="#e0a183"/>
        <path id="패스_70" data-name="패스 70" d="M-171.845,352.372a1.79,1.79,0,0,1,2.042,1.8,2.439,2.439,0,0,1-1.8,2.523s-.12,8.05-7.329,8.05-7.089-12.255-7.089-12.255a20.056,20.056,0,0,0,6.008-6.128S-175.931,352.612-171.845,352.372Z" transform="translate(220.377 -339.693)" fill="#e8bb9e"/>
        <path id="패스_71" data-name="패스 71" d="M-149.143,364.587a.241.241,0,0,0-.242.01,1.407,1.407,0,0,1,.031-.206.744.744,0,0,1,.165-.348.834.834,0,0,1,.285-.158.067.067,0,0,0,.013-.1.287.287,0,0,0-.364-.017.742.742,0,0,0-.279.314,1.662,1.662,0,0,0-.135.94,1.863,1.863,0,0,0,.13.488.86.86,0,0,0,.271.406c.334.212.535-.281.561-.529A.8.8,0,0,0-149.143,364.587Z" transform="translate(198.318 -350.221)" fill="#e0a183"/>
        <path id="패스_72" data-name="패스 72" d="M-220.969,502.185a.467.467,0,0,0,.074-.1.053.053,0,0,0-.059-.077.484.484,0,0,0-.118.049.4.4,0,0,0-.116.043.418.418,0,0,0-.151.077c-.059.042-.117.085-.173.13a1.27,1.27,0,0,0-.136.124c-.02.022-.041.046-.06.07a.4.4,0,0,0-.058.1.089.089,0,0,0,.1.129.451.451,0,0,0,.1-.025c.031-.013.061-.029.09-.045a1.347,1.347,0,0,0,.178-.122c.049-.038.1-.077.142-.117a.436.436,0,0,0,.123-.142A.352.352,0,0,0-220.969,502.185Z" transform="translate(242.078 -434.171)" fill="#e0a183"/>
        <path id="패스_73" data-name="패스 73" d="M-108.861,508.2a2.871,2.871,0,0,0-.259-1.065.079.079,0,0,0-.146.039c.028.356.126.7.149,1.059a5.644,5.644,0,0,1-.02,1.011,5.1,5.1,0,0,1-.224,1.018,5.15,5.15,0,0,1-.209.532,1,1,0,0,0-.127.429.061.061,0,0,0,.09.052c.275-.165.389-.59.487-.877a5.453,5.453,0,0,0,.244-1.087A4.984,4.984,0,0,0-108.861,508.2Z" transform="translate(174.045 -437.263)" fill="#e0a183"/>
        <path id="패스_74" data-name="패스 74" d="M-106.726,509.384a.039.039,0,0,0-.07.009,2.646,2.646,0,0,0-.043.816,4.872,4.872,0,0,1-.1.819,4.665,4.665,0,0,1-.233.774,2.794,2.794,0,0,0-.275.759.048.048,0,0,0,.072.041,1.29,1.29,0,0,0,.445-.65,4.754,4.754,0,0,0,.269-.875,4.559,4.559,0,0,0,.09-.867A1.352,1.352,0,0,0-106.726,509.384Z" transform="translate(172.682 -438.638)" fill="#e0a183"/>
        <path id="패스_75" data-name="패스 75" d="M-170.024,351.056c-.052-.253-.337-.289-.543-.233a11.578,11.578,0,0,1-1.542.362,9.465,9.465,0,0,1-5.995-1.275,11.668,11.668,0,0,1-2.512-2.027,13.865,13.865,0,0,1-1.074-1.275,15.65,15.65,0,0,0-.974-1.318.15.15,0,0,0-.04-.03.293.293,0,0,0-.424-.163,1.618,1.618,0,0,0-.479.531q-.221.3-.446.594-.452.592-.924,1.169c-.572.7-1.156,1.4-1.793,2.039a9.907,9.907,0,0,1-1.952,1.583,6.913,6.913,0,0,1-1.1.523,2.62,2.62,0,0,0-1.023.477.077.077,0,0,0,.015.118c.505.342,1.335-.005,1.829-.226a7.933,7.933,0,0,0,1.714-1.08,20.4,20.4,0,0,0,3-3.2q.422-.522.83-1.056.2-.258.392-.518c.073-.1.158-.2.229-.3a5.539,5.539,0,0,0,.533.988,12.114,12.114,0,0,0,.87,1.19,11.883,11.883,0,0,0,2.115,1.989,10.422,10.422,0,0,0,5.778,2.039,8.93,8.93,0,0,0,3.081-.417C-170.24,351.47-169.967,351.336-170.024,351.056Z" transform="translate(223.318 -338.9)" fill="#764b2b"/>
        <path id="패스_76" data-name="패스 76" d="M-188.226,380.86a1.33,1.33,0,0,1,.121-.863,4.676,4.676,0,0,0,.859-2.173,5.836,5.836,0,0,0-.256-1.349l-.38-1.422q-.374-1.4-.755-2.794c-.146-.536-.29-1.073-.441-1.608-.071-.252-.141-.5-.213-.756a1.459,1.459,0,0,0-.285-.653.039.039,0,0,0-.064.017,1.2,1.2,0,0,0,.035.571c.054.272.126.542.189.813.116.494.236.986.356,1.479q.364,1.5.735,3,.183.738.366,1.476a4.215,4.215,0,0,1,.207,1.452c-.089.822-.851,1.382-1,2.189-.1.547.083,1.711.885,1.511a.166.166,0,0,0,.072-.274A1.346,1.346,0,0,1-188.226,380.86Z" transform="translate(222.586 -353.574)" fill="#764b2b"/>
        <path id="패스_77" data-name="패스 77" d="M-181.037,394.041a.768.768,0,0,0-.277.392,1.982,1.982,0,0,0-.129.441,2.36,2.36,0,0,0-.033.485.769.769,0,0,0,.125.442.317.317,0,0,0,.164.2.075.075,0,0,0,.083-.034.356.356,0,0,0,.038-.224,1.2,1.2,0,0,0,.022-.386,2.531,2.531,0,0,1,.018-.386,3.024,3.024,0,0,1,.083-.406,1.36,1.36,0,0,0,.1-.417A.128.128,0,0,0-181.037,394.041Z" transform="translate(217.618 -368.624)" fill="#764b2b"/>
        <path id="패스_78" data-name="패스 78" d="M-136,381.817a1.811,1.811,0,0,1-.694-1.083c-.115-.537-.043-1.1-.13-1.64a3.717,3.717,0,0,0-.646-1.439,10.14,10.14,0,0,1-.785-1.4,13.6,13.6,0,0,1-.925-6.682c.055-.715.142-1.427.239-2.138a18.1,18.1,0,0,0,.252-2.023.076.076,0,0,0-.148-.02,12.986,12.986,0,0,0-.409,1.959c-.1.611-.19,1.225-.256,1.842a17.966,17.966,0,0,0-.054,3.742,11.7,11.7,0,0,0,.752,3.276,9.622,9.622,0,0,0,.809,1.557,3.579,3.579,0,0,1,.69,1.569,7.7,7.7,0,0,0,.191,1.838,1.236,1.236,0,0,0,1.027.964C-135.9,382.146-135.88,381.91-136,381.817Z" transform="translate(192.217 -351.21)" fill="#764b2b"/>
        <path id="패스_79" data-name="패스 79" d="M-144.315,385.778a2.971,2.971,0,0,1-.1-.441c-.048-.328-.05-.661-.085-.99a3.111,3.111,0,0,0-.216-.9,7.257,7.257,0,0,0-.525-.917,4.24,4.24,0,0,1-.626-2,9.222,9.222,0,0,1,.2-2.02.27.27,0,0,0,.014-.289.145.145,0,0,0-.249,0,5.322,5.322,0,0,0-.376,2.142,4.547,4.547,0,0,0,.517,2.133c.176.322.4.619.564.945a2.747,2.747,0,0,1,.273,1.061c.029.342.038.686.1,1.025.048.277.144.7.429.827a.137.137,0,0,0,.2-.117A1.586,1.586,0,0,0-144.315,385.778Z" transform="translate(196.248 -358.988)" fill="#764b2b"/>
        <path id="패스_80" data-name="패스 80" d="M-149.2,390.012a4.871,4.871,0,0,1-.079-.884c0-.156.013-.309.022-.464,0-.077.006-.154,0-.231,0-.06-.034-.116-.035-.172s-.069-.07-.089-.024a1.189,1.189,0,0,1-.079.111.864.864,0,0,0-.071.249,3.213,3.213,0,0,0-.041.472,4.942,4.942,0,0,0,.066.966,3.393,3.393,0,0,0,.755,1.728c.034.037.106,0,.087-.051A10.1,10.1,0,0,1-149.2,390.012Z" transform="translate(198.25 -365.097)" fill="#764b2b"/>
        <path id="패스_81" data-name="패스 81" d="M-126.5,412.45a3.963,3.963,0,0,0-.432-1.025,3.606,3.606,0,0,0-.324-.461,1.8,1.8,0,0,0-.2-.2.5.5,0,0,0-.1-.077c-.052-.025-.119-.012-.169-.04a.051.051,0,0,0-.069.069c.024.041.011.109.029.154a.49.49,0,0,0,.053.088c.047.071.1.14.144.211a4.9,4.9,0,0,1,.27.437,4.063,4.063,0,0,1,.358.967,4.154,4.154,0,0,1,.1.99c0,.171-.017.342-.022.512a.938.938,0,0,0,.049.459.079.079,0,0,0,.107.028c.286-.178.319-.671.332-.971A3.828,3.828,0,0,0-126.5,412.45Z" transform="translate(185.035 -378.708)" fill="#764b2b"/>
        <path id="패스_82" data-name="패스 82" d="M-184.508,341.169c-.03-.059-.109-.024-.114.031a4.371,4.371,0,0,1-.918,2.044c-.4.564-.815,1.124-1.263,1.655a12.191,12.191,0,0,1-1.423,1.464,15.985,15.985,0,0,1-1.693,1.149.054.054,0,0,0,.041.1,4.665,4.665,0,0,0,1.912-.987,10.869,10.869,0,0,0,1.608-1.559c.487-.572.951-1.171,1.378-1.789A2.058,2.058,0,0,0-184.508,341.169Z" transform="translate(222.757 -336.521)" fill="#764b2b"/>
        <path id="패스_83" data-name="패스 83" d="M-185.117,337.5a.059.059,0,0,0-.1.057,1.487,1.487,0,0,1-.189.819c-.125.279-.275.55-.424.817a18.36,18.36,0,0,1-.974,1.565,14.646,14.646,0,0,1-1.076,1.391c-.193.217-.393.428-.6.63a8.391,8.391,0,0,0-.622.588.017.017,0,0,0,.017.028,3.278,3.278,0,0,0,1.492-1.021,12.742,12.742,0,0,0,1.257-1.552,16.2,16.2,0,0,0,1.08-1.765C-185.02,338.61-184.631,337.919-185.117,337.5Z" transform="translate(222.248 -334.302)" fill="#764b2b"/>
        <path id="패스_84" data-name="패스 84" d="M-157.546,344.165c-.151.042-.285.112-.44.142a3.678,3.678,0,0,1-.549.063,9.879,9.879,0,0,1-1.229-.028,10.418,10.418,0,0,1-2.368-.494,10.068,10.068,0,0,1-4.121-2.612,10.51,10.51,0,0,1-.887-1.049c-.146-.2-.281-.406-.424-.608a.886.886,0,0,0-.427-.391.045.045,0,0,0-.055.055,2.2,2.2,0,0,0,.3.581c.116.2.229.4.356.594a8.983,8.983,0,0,0,.772,1.022,10.418,10.418,0,0,0,1.951,1.711,10.52,10.52,0,0,0,4.9,1.81,6.744,6.744,0,0,0,1.463.016c.358-.045.927-.257.895-.706A.112.112,0,0,0-157.546,344.165Z" transform="translate(209.464 -335.337)" fill="#764b2b"/>
        <path id="패스_85" data-name="패스 85" d="M-156.13,339.74c-.049-.054-.114-.1-.161-.153a.06.06,0,0,0-.1.027c0,.013-.007.025-.01.037-.3-.056-.611-.057-.913-.094a9.155,9.155,0,0,1-1.041-.191,9.191,9.191,0,0,1-2.018-.748,9.542,9.542,0,0,1-1.808-1.191,9.813,9.813,0,0,1-.77-.716c-.256-.266-.487-.572-.761-.819-.02-.018-.06,0-.049.028a3.56,3.56,0,0,0,.579.915,8.1,8.1,0,0,0,.761.831A9,9,0,0,0-160.594,339a9.288,9.288,0,0,0,2.109.844,8.537,8.537,0,0,0,1.1.213,2.925,2.925,0,0,0,1.174,0A.192.192,0,0,0-156.13,339.74Z" transform="translate(206.863 -333.333)" fill="#764b2b"/>
        <g id="그룹_44" data-name="그룹 44" transform="translate(36.064 11.941)">
          <path id="패스_86" data-name="패스 86" d="M-180,360.029a.607.607,0,0,0-.258-.189.894.894,0,0,0-.184-.048,1.318,1.318,0,0,0-.509.014,1.144,1.144,0,0,0-.4.174.789.789,0,0,0-.223.205.828.828,0,0,0-.088.217.234.234,0,0,0,.106.26.244.244,0,0,0,.279-.036c-.053.041.01-.005.026-.015a1,1,0,0,0,.1-.06c.009-.007.024-.018.037-.029-.013.01-.025.016,0,0l0,0a.086.086,0,0,0,.011-.009l-.009.008c.023-.015.045-.03.069-.043l.054-.027c-.018.007-.035.012,0,0l.005,0,.014-.007-.013.007.031-.011c.025-.008.051-.015.077-.022l.043-.009.058,0c.026,0,.053,0,.08,0l.03,0-.011,0,.015,0h.006a.109.109,0,0,1,.031.007l.026.005c.026.006.051.014.076.023l.006,0,0,0,.01,0,.01,0c.068.028.136.044.206.069a.294.294,0,0,0,.331-.134A.308.308,0,0,0-180,360.029Z" transform="translate(181.669 -359.774)" fill="#56381e"/>
          <path id="패스_87" data-name="패스 87" d="M-179.114,361.372c.035.009.045.01.04.007l-.037-.007Z" transform="translate(180.118 -360.744)" fill="#56381e"/>
          <path id="패스_88" data-name="패스 88" d="M-180.267,361.671l.007-.005h0Z" transform="translate(180.818 -360.922)" fill="#56381e"/>
          <path id="패스_89" data-name="패스 89" d="M-179.937,361.485l0,0h0Z" transform="translate(180.618 -360.811)" fill="#56381e"/>
        </g>
        <path id="패스_90" data-name="패스 90" d="M-179.313,365.139c0-.1-.008-.206-.02-.307a1.54,1.54,0,0,0-.081-.308l-.083-.137a.443.443,0,0,0-.181-.147.274.274,0,0,0-.146-.054.406.406,0,0,0-.236,0,.689.689,0,0,0-.271.149.716.716,0,0,0-.2.447,1.7,1.7,0,0,0,.011.464,1.046,1.046,0,0,0,.032.144,2.073,2.073,0,0,0,.1.285c0,.007.008.014.012.02s.015.027.023.04a.641.641,0,0,0,.086.113s.006.008.009.012.014.009.02.015a.5.5,0,0,0,.091.064.431.431,0,0,0,.211.072.6.6,0,0,0,.281-.064.623.623,0,0,0,.274-.342A1.129,1.129,0,0,0-179.313,365.139Z" transform="translate(217.052 -350.5)" fill="#56381e"/>
        <g id="그룹_45" data-name="그룹 45" transform="translate(42.527 11.647)">
          <path id="패스_91" data-name="패스 91" d="M-163.5,359.416a.605.605,0,0,0-.22-.232.889.889,0,0,0-.172-.08,1.325,1.325,0,0,0-.5-.077,1.145,1.145,0,0,0-.422.1.8.8,0,0,0-.256.162.846.846,0,0,0-.126.2.235.235,0,0,0,.058.275.244.244,0,0,0,.281.014c-.059.031.011,0,.028-.009a1.034,1.034,0,0,0,.1-.042l.042-.022c-.015.007-.027.011,0,0l0,0a.059.059,0,0,0,.012-.007l-.01.007c.025-.011.05-.021.075-.03l.058-.017c-.019,0-.037.005,0,0h.005l.015,0-.014,0,.033-.005c.026,0,.053-.006.079-.007h.044l.058.006c.027,0,.053.009.079.015l.029.007-.011,0,.014.006.006,0a.091.091,0,0,1,.029.013l.024.01c.024.011.048.023.071.036l.005,0,0,0,.009.005.009.005c.062.041.126.068.191.1a.294.294,0,0,0,.349-.073A.308.308,0,0,0-163.5,359.416Z" transform="translate(165.225 -359.026)" fill="#56381e"/>
          <path id="패스_92" data-name="패스 92" d="M-162.674,360.651c.033.015.042.018.038.015l-.035-.014Z" transform="translate(163.677 -360.012)" fill="#56381e"/>
          <path id="패스_93" data-name="패스 93" d="M-163.864,360.742l.007,0h0Z" transform="translate(164.399 -360.065)" fill="#56381e"/>
          <path id="패스_94" data-name="패스 94" d="M-163.505,360.616h0Z" transform="translate(164.181 -359.99)" fill="#56381e"/>
        </g>
        <path id="패스_95" data-name="패스 95" d="M-163.415,364.566c0-.1-.008-.206-.02-.307a1.546,1.546,0,0,0-.081-.308l-.083-.137a.443.443,0,0,0-.181-.147.278.278,0,0,0-.146-.054.413.413,0,0,0-.236,0,.7.7,0,0,0-.271.15.716.716,0,0,0-.2.447,1.715,1.715,0,0,0,.011.464,1.049,1.049,0,0,0,.032.144,2.1,2.1,0,0,0,.1.285c0,.007.008.013.012.02s.015.027.023.04a.639.639,0,0,0,.086.112s.005.009.009.012.014.009.02.015a.5.5,0,0,0,.091.064.426.426,0,0,0,.211.071.6.6,0,0,0,.281-.064.623.623,0,0,0,.274-.341A1.129,1.129,0,0,0-163.415,364.566Z" transform="translate(207.402 -350.152)" fill="#56381e"/>
        <path id="패스_96" data-name="패스 96" d="M-156.507,362.225c-.161-.339-.578.165-.7.287-.622.612-1.213,1.245-1.793,1.9a12.869,12.869,0,0,0-1.8,2.288c-.04.074.045.178.119.123a13.251,13.251,0,0,0,1.824-1.774c.6-.636,1.2-1.264,1.774-1.919l.4-.45C-156.586,362.562-156.424,362.4-156.507,362.225Z" transform="translate(205.075 -349.251)" fill="#e1ebf4"/>
        <path id="패스_97" data-name="패스 97" d="M-154.81,371.98a.348.348,0,0,0-.3-.171,3.46,3.46,0,0,0-1.239.255c-.391.113-.771.25-1.153.393s-.76.29-1.138.442c-.2.079-.394.154-.587.24a1.99,1.99,0,0,0-.424.3c-.056.045-.007.134.056.135a2.231,2.231,0,0,0,.569-.042c.2-.049.406-.106.61-.157q.568-.143,1.138-.272c.381-.086.762-.168,1.141-.266a3.868,3.868,0,0,0,1.2-.383.346.346,0,0,0,.171-.3A.521.521,0,0,0-154.81,371.98Z" transform="translate(204.382 -355.135)" fill="#e1ebf4"/>
        <path id="패스_98" data-name="패스 98" d="M-183.357,375.543a2.892,2.892,0,0,0-.485-.145l-.463-.12c-.082-.021-.164-.045-.247-.064a.333.333,0,0,0-.154-.012.867.867,0,0,0-.1.039.093.093,0,0,0-.055.135.387.387,0,0,0,.185.173c.079.031.16.06.24.089l.45.168a2.969,2.969,0,0,0,.453.158c.149.028.4.108.471-.083S-183.223,375.6-183.357,375.543Z" transform="translate(219.68 -357.196)" fill="#e1ebf4"/>
        <path id="패스_99" data-name="패스 99" d="M-182.39,381.779a.232.232,0,0,0-.1-.075.232.232,0,0,0-.159-.013,1.288,1.288,0,0,0-.207.1.911.911,0,0,0-.12.1l-.063.053c-.045.039-.091.075-.135.115a.432.432,0,0,0-.108.242.194.194,0,0,0,.185.243l.073,0a.59.59,0,0,0,.064-.005.262.262,0,0,0,.046-.007.275.275,0,0,0,.122-.071l.14-.11c.046-.036.1-.07.14-.11a.819.819,0,0,0,.085-.11.765.765,0,0,0,.053-.072A.245.245,0,0,0-182.39,381.779Z" transform="translate(218.715 -361.132)" fill="#e1ebf4"/>
        <path id="패스_100" data-name="패스 100" d="M-178.9,369.856c-5.215.853-4.268,10.24,2.891,9.07S-171.74,368.687-178.9,369.856Z" transform="translate(218.059 -353.891)" fill="#fff"/>
        <path id="패스_101" data-name="패스 101" d="M-173.35,377.608a1.963,1.963,0,0,0-.772,0c-.227.064-.448.159-.673.232a9.422,9.422,0,0,1-1.525.393,7.108,7.108,0,0,1-1.515.053,9.977,9.977,0,0,1-1.607-.151c-.1-.022-.168.118-.071.168a6.314,6.314,0,0,0,1.538.635,7.389,7.389,0,0,0,1.718.137,6.774,6.774,0,0,0,1.685-.237,3.645,3.645,0,0,0,.83-.331,1.446,1.446,0,0,0,.534-.657A.166.166,0,0,0-173.35,377.608Z" transform="translate(216.453 -358.636)" fill="#e1ebf4"/>
        <path id="패스_102" data-name="패스 102" d="M-171.941,384.153c-.191.026-.384.025-.578.065s-.39.145-.588.2a5.292,5.292,0,0,1-1.106.219,6.236,6.236,0,0,1-2.483-.423c-.107-.038-.176.129-.077.182a6.959,6.959,0,0,0,2.641.87,3.611,3.611,0,0,0,1.316-.1,1.687,1.687,0,0,0,.664-.3,1.645,1.645,0,0,0,.375-.509A.148.148,0,0,0-171.941,384.153Z" transform="translate(214.79 -362.631)" fill="#e1ebf4"/>
        <path id="패스_103" data-name="패스 103" d="M-168.289,401.38c-.167-.42-.832-.265-.7.192-.022-.072-.054.079-.065.1-.026.054-.052.107-.079.16q-.088.173-.188.341a5.824,5.824,0,0,1-.424.622,6.691,6.691,0,0,1-1.045,1.049,7.473,7.473,0,0,1-2.687,1.364,9.041,9.041,0,0,1-6.46-.829,12.481,12.481,0,0,1-3.179-2.219.132.132,0,0,0-.205.026c-.141.258-.016.475.173.67.223.231.474.436.719.643a11.618,11.618,0,0,0,1.587,1.137,11.113,11.113,0,0,0,3.619,1.386,8.544,8.544,0,0,0,6.764-1.519,7.263,7.263,0,0,0,1.373-1.379,6.326,6.326,0,0,0,.5-.769C-168.437,402.09-168.165,401.692-168.289,401.38Z" transform="translate(218.771 -372.94)" fill="#a52b1e"/>
        <path id="패스_104" data-name="패스 104" d="M-188.071,424.892c.066-.117-.1-.261-.193-.149a6.666,6.666,0,0,0-1.025,4.488c.032.919.163,1.838.248,2.754.044.471.073.943.075,1.416a2.882,2.882,0,0,0,.111,1.315.091.091,0,0,0,.142.018,1.687,1.687,0,0,0,.283-1.192,12.577,12.577,0,0,0-.071-1.321c-.09-.919-.246-1.832-.349-2.75a9.712,9.712,0,0,1,.007-2.345A6.129,6.129,0,0,1-188.071,424.892Z" transform="translate(222.367 -387.246)" fill="#b44033"/>
        <path id="패스_105" data-name="패스 105" d="M-137.977,430.2c-.019-.2-.049-.4-.081-.606-.073-.453-.17-.9-.277-1.346-.211-.886-.457-1.774-.584-2.677-.011-.079-.135-.057-.136.018a13.348,13.348,0,0,0,.293,2.633c.082.437.167.873.233,1.313.033.221.058.442.081.664.011.11.014.226.036.335a2.545,2.545,0,0,0,.128.335.116.116,0,0,0,.222,0A1.622,1.622,0,0,0-137.977,430.2Z" transform="translate(191.866 -387.741)" fill="#b44033"/>
        <path id="패스_106" data-name="패스 106" d="M-216.628,496.363a4.272,4.272,0,0,1-2.1-.676,4.022,4.022,0,0,1-.829-.739c-.132-.154-.241-.324-.365-.485-.095-.122-.232-.3-.4-.279a.087.087,0,0,0-.083.083c-.022.184.16.4.248.555a4.308,4.308,0,0,0,.326.484,4.305,4.305,0,0,0,.9.848,4.166,4.166,0,0,0,2.308.8A.294.294,0,0,0-216.628,496.363Z" transform="translate(241.251 -429.422)" fill="#a52b1e"/>
        <path id="패스_107" data-name="패스 107" d="M-112.087,498.529c-.13.013-.188.03-.232.088a7.123,7.123,0,0,1-1.853.864,9.365,9.365,0,0,1-1.041.25,6.216,6.216,0,0,0-1.042.156.158.158,0,0,0,0,.3,2.489,2.489,0,0,0,1.113.067,6.061,6.061,0,0,0,1.132-.186,6.957,6.957,0,0,0,2.081-.954C-111.7,498.958-111.748,498.494-112.087,498.529Z" transform="translate(178.093 -432.059)" fill="#a52b1e"/>
        <g id="그룹_46" data-name="그룹 46" transform="translate(34.914 44.32)">
          <path id="패스_108" data-name="패스 108" d="M-143.158,444.9l.03,0C-143.163,444.895-143.167,444.895-143.158,444.9Z" transform="translate(159.445 -443.823)" fill="#ca4d3a"/>
          <path id="패스_109" data-name="패스 109" d="M-167.293,443.059a.5.5,0,0,0-.484-.484c.027,0-.257-.046-.292-.055a1.48,1.48,0,0,0-.9.167c-.3.141-.576.334-.878.478a5.352,5.352,0,0,1-1.636.45,6.215,6.215,0,0,1-1.993-.1,10.015,10.015,0,0,1-1.986-.843,4.148,4.148,0,0,0-2.418-.467,8.1,8.1,0,0,0-2.26.987,3.182,3.182,0,0,1-1.98.364,9.1,9.1,0,0,1-2.027-.753c-.288-.115-.557.274-.4.519.827,1.275,2.779,1.584,4.181,1.482a3.841,3.841,0,0,0,1.233-.275,7.64,7.64,0,0,1,1.25-.494,3.225,3.225,0,0,1,2.123.571,12.153,12.153,0,0,0,2.283,1.058,6.241,6.241,0,0,0,2.575.118,7.256,7.256,0,0,0,2.306-.757,3.276,3.276,0,0,0,1.02-.759A1.394,1.394,0,0,0-167.293,443.059Z" transform="translate(184.597 -442.167)" fill="#ca4d3a"/>
        </g>
        <path id="패스_110" data-name="패스 110" d="M-170.727,498.313c-.928.355-1.821.8-2.741,1.179s-1.854.729-2.8,1.056a26.59,26.59,0,0,1-5.492,1.417,19.805,19.805,0,0,1-9.853-1.364c-.874-.359-1.692-.813-2.529-1.246s-1.587-1.01-2.387-1.5c-.162-.1-.319.122-.2.256a11.338,11.338,0,0,0,2.005,1.614,14.654,14.654,0,0,0,2.227,1.25,20.348,20.348,0,0,0,4.917,1.543,20.049,20.049,0,0,0,5.152.254,24.173,24.173,0,0,0,5.559-1.233q1.642-.54,3.245-1.187a25.235,25.235,0,0,0,3.153-1.413C-170.14,498.75-170.357,498.172-170.727,498.313Z" transform="translate(226.897 -431.634)" fill="#a52b1e"/>
        <path id="패스_111" data-name="패스 111" d="M-252.915,616.758q-.021-.993-.042-1.984l-.079-3.759c-.053-2.541-.144-5.082-.218-7.623-.149-5.085-.419-10.163-.623-15.245q-.084-2.089-.168-4.177c-.028-.7-.053-1.394-.144-2.088a2.291,2.291,0,0,0-.692-1.73.311.311,0,0,0-.373.048c-.454.365-.45.92-.526,1.464a13.226,13.226,0,0,0-.069,1.992q.021,1.879.043,3.759.044,3.812.055,7.623c.01,5.082.148,10.164.272,15.246.034,1.392.083,2.785.126,4.177l.064,2.088a5.8,5.8,0,0,0,.108,1.246,1.643,1.643,0,0,0,.7.935.828.828,0,0,0,1-.13A2.138,2.138,0,0,0-252.915,616.758Z" transform="translate(262.766 -481.579)" fill="#a52b1e"/>
        <path id="패스_112" data-name="패스 112" d="M-232.291,616.758q-.021-.993-.042-1.984l-.079-3.759c-.053-2.541-.144-5.082-.218-7.623-.149-5.085-.419-10.163-.623-15.245q-.084-2.089-.168-4.177c-.028-.7-.053-1.394-.144-2.088a2.291,2.291,0,0,0-.692-1.73.311.311,0,0,0-.373.048c-.454.365-.45.92-.526,1.464a13.226,13.226,0,0,0-.069,1.992q.021,1.879.043,3.759.044,3.812.055,7.623c.01,5.082.148,10.164.272,15.246.034,1.392.083,2.785.126,4.177l.064,2.088a5.78,5.78,0,0,0,.108,1.246,1.643,1.643,0,0,0,.7.935.828.828,0,0,0,1-.13A2.138,2.138,0,0,0-232.291,616.758Z" transform="translate(250.247 -481.579)" fill="#a52b1e"/>
        <path id="패스_113" data-name="패스 113" d="M-211.667,616.758q-.021-.993-.042-1.984l-.079-3.759c-.053-2.541-.144-5.082-.218-7.623-.149-5.085-.419-10.163-.623-15.245q-.084-2.089-.168-4.177c-.028-.7-.053-1.394-.144-2.088a2.29,2.29,0,0,0-.693-1.73.31.31,0,0,0-.372.048c-.454.365-.45.92-.526,1.464a13.276,13.276,0,0,0-.069,1.992q.021,1.879.043,3.759.044,3.812.055,7.623c.01,5.082.148,10.164.272,15.246.034,1.392.084,2.785.126,4.177q.032,1.044.064,2.088a5.778,5.778,0,0,0,.108,1.246,1.643,1.643,0,0,0,.7.935.828.828,0,0,0,1-.13A2.137,2.137,0,0,0-211.667,616.758Z" transform="translate(237.728 -481.579)" fill="#a52b1e"/>
        <path id="패스_114" data-name="패스 114" d="M-163.006,540.8q-.081-1.386-.223-2.769c-.094-.918-.205-1.836-.365-2.745a12.716,12.716,0,0,0-.634-2.691.134.134,0,0,0-.263.036,9.536,9.536,0,0,0,.121,1.414c.056.441.1.883.154,1.325.1.919.22,1.836.312,2.757s.163,1.844.213,2.769c.025.447.042.894.081,1.34.018.215.04.434.078.647.043.245.15.47.19.718.018.112.169.068.181-.024.035-.263.136-.5.167-.766a5.965,5.965,0,0,0,.034-.67C-162.957,541.693-162.98,541.246-163.006,540.8Z" transform="translate(207.307 -452.683)" fill="#3e597e"/>
        <path id="패스_115" data-name="패스 115" d="M-188.814,508.95a.814.814,0,0,0-.121-.4.06.06,0,0,0-.112.03.716.716,0,0,1,0,.173.43.43,0,0,1-.09.142c-.089.092-.174.185-.26.283a6.309,6.309,0,0,1-.622.594c-.213.186-.429.372-.657.54-.122.09-.246.179-.373.262-.057.037-.117.073-.174.109s-.133.1-.2.143a.153.153,0,0,0,.117.278,1.5,1.5,0,0,0,.24-.053c.082-.03.16-.065.239-.1a3.35,3.35,0,0,0,.433-.24,8.434,8.434,0,0,0,.815-.616,2.868,2.868,0,0,0,.683-.7A.726.726,0,0,0-188.814,508.95Z" transform="translate(223.702 -438.128)" fill="#3e597e"/>
        <path id="패스_116" data-name="패스 116" d="M-137.875,509.823a1.6,1.6,0,0,0-.334-.311c-.126-.1-.255-.2-.387-.285a4.577,4.577,0,0,1-.706-.6,4.657,4.657,0,0,1-.57-.728c-.173-.267-.29-.577-.488-.825-.106-.131-.311-.016-.314.13a2.1,2.1,0,0,0,.342.987,4.266,4.266,0,0,0,.629.837,4.345,4.345,0,0,0,.79.658,1.456,1.456,0,0,0,.98.277A.1.1,0,0,0-137.875,509.823Z" transform="translate(192.85 -437.215)" fill="#3e597e"/>
        <path id="패스_117" data-name="패스 117" d="M-181.939,685.852a8.693,8.693,0,0,0-1.067-.381,2.276,2.276,0,0,0,.142-.311c.015-.042.027-.083.044-.124.01-.023.022-.046.029-.07,0-.007.012-.044.014-.054a.456.456,0,0,0,.023-.04c.009-.022.013-.046.021-.069a.745.745,0,0,1,.068-.151c.029-.047-.032-.116-.08-.08-.079.061-.174.1-.253.158-.015.011-.016.014-.007.009l-.036.015a.518.518,0,0,0-.065.049l-.114.092a1.567,1.567,0,0,0-.33.4,2.875,2.875,0,0,0-1.075-.217c-.185.011-.331.258-.165.4a2.724,2.724,0,0,0,.909.455,1.893,1.893,0,0,0-.152.757.254.254,0,0,0,.179.235.273.273,0,0,0,.065.009.238.238,0,0,0,.211-.121,6.124,6.124,0,0,0,.281-.677,8.493,8.493,0,0,0,1.092.348.347.347,0,0,0,.407-.2A.343.343,0,0,0-181.939,685.852Z" transform="translate(219.672 -544.984)" fill="#3e597e"/>
        <path id="패스_118" data-name="패스 118" d="M-149.575,685.231a.377.377,0,0,0-.077-.089l.055.094c-.079-.262-.367-.3-.6-.341-.119-.021-.237-.049-.353-.081l.013-.037c.048-.136.479-1.292.191-1.292-.1,0-.16.1-.218.172a1.515,1.515,0,0,0-.175.3c-.113.225-.207.458-.3.691-.113-.048-.224-.1-.351-.159-.2-.1-.4-.19-.59-.3-.162-.1-.395.106-.273.273.072.1.141.2.22.294a1.775,1.775,0,0,0,.26.231,2.724,2.724,0,0,0,.478.292c-.012.031-.025.062-.038.093a1.923,1.923,0,0,0-.2.736l0,0a.21.21,0,0,0,.025.112.219.219,0,0,0,.341.044,2.087,2.087,0,0,0,.367-.743l.011-.031a3.291,3.291,0,0,0,.4.1c.274.05.579.076.737-.146a.3.3,0,0,0,.073-.081A.128.128,0,0,0-149.575,685.231Z" transform="translate(199.898 -544.331)" fill="#3e597e"/>
      </g>
      <g id="그룹_51" data-name="그룹 51" transform="translate(-560.367 322.876)">
        <path id="패스_119" data-name="패스 119" d="M-538.129,680.4c-3.332.459-5.411,1.8-6.145,2.66a1.982,1.982,0,0,0,.367,2.568c.489.367,10.516.367,11.983.245s1.406-3.913.581-5.2a5.046,5.046,0,0,0-2.66-2.017C-534.491,678.53-538.129,680.4-538.129,680.4Z" transform="translate(550.804 -538.835)" fill="#4780a5"/>
        <path id="패스_120" data-name="패스 120" d="M-500.868,680.4c-3.332.459-5.411,1.8-6.144,2.66a1.982,1.982,0,0,0,.367,2.568c.489.367,10.516.367,11.983.245s1.406-3.913.581-5.2a5.045,5.045,0,0,0-2.66-2.017C-497.23,678.53-500.868,680.4-500.868,680.4Z" transform="translate(528.186 -538.835)" fill="#4780a5"/>
        <path id="패스_121" data-name="패스 121" d="M-543.065,503.867c-.092.275.275,31.639,1.467,41.819s3.944,24.395,4.311,25.128,6.052.825,6.786.275,1.467-45.487,1.742-48.238c0,0,4.794,47.221,5.227,47.78s7.422.913,7.7.459c.642-1.039,3.088-60.833,1.742-67.8s-14.306-4.158-14.306-4.158Z" transform="translate(549.872 -429.524)" fill="#354060"/>
        <path id="패스_122" data-name="패스 122" d="M-476.89,533.465c.008.373,6.419,21.918,6.786,22.285s2.018-.642,2.018-.642-6.443-20.612-7.245-22.744C-475.609,531.626-476.89,533.465-476.89,533.465Z" transform="translate(509.695 -449.933)" fill="#91bcdb"/>
        <path id="패스_123" data-name="패스 123" d="M-443.286,523.2c.008.373,6.42,21.918,6.786,22.285s2.018-.642,2.018-.642-6.443-20.612-7.245-22.744C-442,521.358-443.286,523.2-443.286,523.2Z" transform="translate(489.297 -443.7)" fill="#91bcdb"/>
        <path id="패스_124" data-name="패스 124" d="M-471.531,515.47c-4.514,1.4-6.144,2.476-6.878,4.31a5.159,5.159,0,0,0,.092,3.669,4.665,4.665,0,0,0,2.568-.55s-.564-2.233.367-3.21,3.3-1.284,5.594-2.293,2.935-.184,3.76.459a3.656,3.656,0,0,1,1.1,1.834,4.165,4.165,0,0,0,2.2-.917S-463.278,512.9-471.531,515.47Z" transform="translate(510.802 -439.389)" fill="#87bca1"/>
        <path id="패스_125" data-name="패스 125" d="M-464.612,504.187a10.135,10.135,0,0,0-.4,4.722c.253,1.892,1.105,2.914,2.009,2.11a2,2,0,0,0,1.507-.3s.622.321,1.426-.683.485-1.888.092-3.026-.312-3.324-1.116-4.328S-464.009,502.478-464.612,504.187Z" transform="translate(502.551 -431.752)" fill="#db9170"/>
        <path id="패스_126" data-name="패스 126" d="M-419.5,688.372c-.054,1.313,1.557,2.378,3.088,1.941s1.432-2.637.817-3.649S-419.455,687.233-419.5,688.372Z" transform="translate(474.861 -543.504)" fill="#354060"/>
        <path id="패스_127" data-name="패스 127" d="M-463,579.022c5.869-5.561,14.857-11.017,21.735-9.968s15.957,32.108,16.232,34.521-19.442,18.677-27.329,14.48l-9.446-30.848Z" transform="translate(501.267 -472.231)" fill="#87bca1"/>
        <path id="패스_128" data-name="패스 128" d="M-555.4,503.482a10.623,10.623,0,0,0,0,3.076c.244,1.722.6,2.493-.015,2.839s-1.342-1.588-1.459-2.371a5.414,5.414,0,0,0-.361,2.226c.063,1.258.607,1.751.591,2.336s-.444.574-.444.574a1.348,1.348,0,0,1-1.023.052s-.224.53-1.039-.263a.989.989,0,0,1-.661-.6,8.542,8.542,0,0,1-.5-3.76c.185-1.372.907-3.91,1.654-4.736S-555.926,502.483-555.4,503.482Z" transform="translate(560.367 -431.867)" fill="#db9170"/>
        <path id="패스_129" data-name="패스 129" d="M-544.169,402.993s-6.236,2.11-8.162,4.035-6.878,34.024-6.6,35.95c0,0,3.944,1.375,5.411,1.009l-.183,2.018s20.084,5.319,30.905.092l-.183-1.559s6.053-.917,6.878-1.376c0,0-6.055-31.589-7.52-34.666-1.834-3.852-11.83-5.961-11.83-5.961l-5.136-.642Z" transform="translate(559.504 -370.84)" fill="#4780a5"/>
        <path id="패스_130" data-name="패스 130" d="M-520.653,388.264a25.6,25.6,0,0,1-.693,5.136s5.445,2.018,8.712-.458c0,0-2.178-4.219-1.782-6.236S-520.653,388.264-520.653,388.264Z" transform="translate(536.681 -361.247)" fill="#db9170"/>
        <path id="패스_131" data-name="패스 131" d="M-529.348,346.886s5.686-2.384,6.786-5.961-.642-4.31-.092-6.42-1.375-4.86-2.659-5.961-.642-4.219-2.476-4.769a4.712,4.712,0,0,0-3.485.459s-4.769-1.926-7.337-1.192-2.44,2.009-3.943,2.751-3.324-.346-3.944,1.926-.275,3.668-1.651,4.585-.642,2.293-.183,3.393a15.092,15.092,0,0,1,1.009,4.127c.183,1.651,2.384,4.952,3.852,5.411s1.1,3.118,4.677,2.384A60.519,60.519,0,0,1-529.348,346.886Z" transform="translate(553.432 -322.876)" fill="#462b1d"/>
        <path id="패스_132" data-name="패스 132" d="M-555.883,504.806" transform="translate(557.645 -433.31)" fill="#d59ca1" stroke="#262425" stroke-linecap="round" stroke-linejoin="round" stroke-width="1"/>
        <path id="패스_133" data-name="패스 133" d="M-466.279,593.639c-4.2,2.68-1.009,11.122-.183,14.795s7.887,22.14,10.822,24.238,7.153-1.364,7.52-3.463-6.144-19.936-9.079-26.337S-462.336,591.121-466.279,593.639Z" transform="translate(504.541 -486.847)" fill="#6c9477"/>
        <path id="패스_134" data-name="패스 134" d="M-512.406,391.371c-.593-1.41-1.3-3.443-1.06-4.666.4-2.018-6.237,1.559-6.237,1.559s-.018.532-.079,1.293A4.29,4.29,0,0,0-518.139,391a6.527,6.527,0,0,0,2.005.483A9.219,9.219,0,0,0-512.406,391.371Z" transform="translate(535.731 -361.247)" fill="#d27054"/>
        <path id="패스_135" data-name="패스 135" d="M-518.929,358.922s1.926,0,2.018,1.651a2.408,2.408,0,0,1-2.018,2.66s-2.018,6.97-8.529,6.97-8.437-10.087-8.162-12.747a6.076,6.076,0,0,0,3.3-1.284s.734,1.192,1.742.734a10.56,10.56,0,0,0,1.926-1.192,1.047,1.047,0,0,0,1.1.917c1.009,0,3.76-2.11,3.76-2.11s1.173,2.477,2.384,2.843,1.376-.459,1.376-.459S-519,358.648-518.929,358.922Z" transform="translate(545.36 -342.084)" fill="#db9170"/>
        <path id="패스_136" data-name="패스 136" d="M-524.053,372.134c-5.453.856-4.463,10.277,3.023,9.1S-516.567,370.959-524.053,372.134Z" transform="translate(540.423 -352.713)" fill="#fff"/>
        <path id="패스_137" data-name="패스 137" d="M-491.671,368.16a.244.244,0,0,0,.037-.289.424.424,0,0,0-.485-.178.746.746,0,0,0-.394.325,2.116,2.116,0,0,0-.344.959,1.94,1.94,0,0,0,0,.468,1.054,1.054,0,0,0,.156.49.622.622,0,0,0,.487.27.508.508,0,0,0,.485-.352,1.237,1.237,0,0,0-.326-1.132.272.272,0,0,0-.188-.088c.008-.023.015-.046.024-.07a1.363,1.363,0,0,1,.186-.327c-.018.022.036-.034.035-.033-.016.018,0,0,.007-.008h0c.028.008.062.02.026,0A.25.25,0,0,0-491.671,368.16Z" transform="translate(519.395 -350.07)" fill="#d27054"/>
        <path id="패스_138" data-name="패스 138" d="M-519.455,357.64a4.345,4.345,0,0,0-1.434-.009,3.7,3.7,0,0,1-1.482-.126c-.376-.141-.51-.554-.656-.892a7.2,7.2,0,0,0-.325-.672.749.749,0,0,0-.362-.373.819.819,0,0,0,.04-.126.545.545,0,0,0-.271-.574.078.078,0,0,0-.115.047.506.506,0,0,1-.03.084c-.107.1-.18.241-.279.354a1.2,1.2,0,0,1-.432.326,1.256,1.256,0,0,1-1.075-.069c-.846-.454-1.079-1.535-1.764-2.151a.17.17,0,0,0-.067-.036,1.366,1.366,0,0,0,.173-.623.086.086,0,0,0-.127-.073,5.631,5.631,0,0,0-1.105.854,8.3,8.3,0,0,1-1.2.829,5.772,5.772,0,0,1-1.344.653,1.148,1.148,0,0,1-.67.008,1.381,1.381,0,0,1-.359-.2c.019-.021.041-.039.059-.061a1.266,1.266,0,0,0,.2-.369,1.053,1.053,0,0,0,.024-.361.14.14,0,0,0-.236-.1,2.229,2.229,0,0,1-.192.116c-.057.04-.1.094-.158.139-.106.089-.207.182-.312.274-.215.189-.439.369-.669.54a1.876,1.876,0,0,1-1.478.517,1.382,1.382,0,0,1-.622-.334,1.51,1.51,0,0,1-.241-.29v0a.314.314,0,0,0-.016-.3.512.512,0,0,0-.23-.15c.048,0,.046,0-.009-.006h0l-.011,0a.425.425,0,0,0-.219.054,8.2,8.2,0,0,0-.724.538,6.458,6.458,0,0,1-1.642.86,5.074,5.074,0,0,1-1.8.289,9.349,9.349,0,0,1-1.724-.34.044.044,0,0,0-.035-.024c-.055-.007-.1-.013-.154-.017a.088.088,0,0,0-.062.149,3.147,3.147,0,0,0,1.579.68,5.672,5.672,0,0,0,1.851.042,5.039,5.039,0,0,0,1.71-.638,7.977,7.977,0,0,0,.769-.495c.121-.087.246-.174.364-.268a1.666,1.666,0,0,0,.156.229,1.738,1.738,0,0,0,.533.444,1.869,1.869,0,0,0,1.436.154,4.445,4.445,0,0,0,1.383-.844c.062-.049.121-.1.181-.151a1.327,1.327,0,0,0,.986.524,3.088,3.088,0,0,0,1.748-.529,9.283,9.283,0,0,0,1.476-.951,3.581,3.581,0,0,0,.522-.5,4.586,4.586,0,0,0,.442.843c.153.255.3.514.474.758a2.71,2.71,0,0,0,1.219,1.083,1.8,1.8,0,0,0,1.586-.241,1.537,1.537,0,0,0,.281-.259,2.825,2.825,0,0,0,.132.4c.09.255.164.515.247.773a1.585,1.585,0,0,0,.894,1.1,4.2,4.2,0,0,0,1.655.205,1.961,1.961,0,0,0,1.551-.58A.085.085,0,0,0-519.455,357.64Z" transform="translate(549.594 -340.991)" fill="#5c3829"/>
        <path id="패스_139" data-name="패스 139" d="M-495.594,349.893a2.127,2.127,0,0,1-1.123-.361,2.428,2.428,0,0,1-.78-.869,2.569,2.569,0,0,0-.609-.868,1.354,1.354,0,0,0-1.129-.1,6.723,6.723,0,0,1-1.412.211,1.316,1.316,0,0,1-.988-.515,2.245,2.245,0,0,1-.437-1.161,5.886,5.886,0,0,1-.031-.628.98.98,0,0,0-.087-.564.05.05,0,0,0-.077-.01c-.2.216-.167.657-.171.934a3.38,3.38,0,0,0,.143,1.111,1.975,1.975,0,0,0,1.181,1.308c.8.261,1.595-.145,2.389-.182.343-.016.474.3.613.562a4,4,0,0,0,.562.834,2.253,2.253,0,0,0,.96.647,1.3,1.3,0,0,0,.535.057,1.7,1.7,0,0,0,.523-.179C-495.422,350.071-495.479,349.885-495.594,349.893Z" transform="translate(525.204 -336.314)" fill="#5c3829"/>
        <path id="패스_140" data-name="패스 140" d="M-493.018,343.751a2.018,2.018,0,0,1-.469-.408c-.158-.161-.3-.335-.456-.5a1.4,1.4,0,0,0-1.269-.537,2.46,2.46,0,0,1-.971.031,1.868,1.868,0,0,1-.805-.423,2.255,2.255,0,0,1-.54-.746,3.13,3.13,0,0,1-.285-1.048.077.077,0,0,0-.153,0,4.186,4.186,0,0,0-.009.558,2.834,2.834,0,0,0,.1.467,2.639,2.639,0,0,0,.454.893,2.172,2.172,0,0,0,1.612.837c.33.008.707-.169,1.025-.048a1.409,1.409,0,0,1,.515.427,3.916,3.916,0,0,0,.5.527.861.861,0,0,0,.692.2C-492.972,343.967-492.9,343.808-493.018,343.751Z" transform="translate(522.499 -333.298)" fill="#5c3829"/>
        <path id="패스_141" data-name="패스 141" d="M-529.2,337.865a8.99,8.99,0,0,1-1.021,1.063,4.823,4.823,0,0,1-1.247.829,4.654,4.654,0,0,1-1.447.406,4.564,4.564,0,0,1-.744.02c-.263-.015-.518-.079-.78-.094-.587-.033-.91.439-1.282.814a3.3,3.3,0,0,1-1.313.921,4.162,4.162,0,0,1-1.85-.078,3.21,3.21,0,0,0-1.607.082,4.845,4.845,0,0,0-2.365,2.312c-.061.11.092.242.181.139a5.982,5.982,0,0,1,2.292-2.062c1.149-.394,2.313.384,3.471.046a3.362,3.362,0,0,0,1.307-.808c.188-.174.364-.362.541-.547a1.523,1.523,0,0,1,.294-.275.727.727,0,0,1,.509-.045,5.254,5.254,0,0,0,2.9-.364,5.238,5.238,0,0,0,1.42-.914,3.3,3.3,0,0,0,.886-1.36C-529.028,337.872-529.15,337.8-529.2,337.865Z" transform="translate(549.748 -331.958)" fill="#5c3829"/>
        <path id="패스_142" data-name="패스 142" d="M-538.555,370.442c-.169.013-.324-.229-.407-.349a5.412,5.412,0,0,1-.3-.509,8.142,8.142,0,0,1-.472-1.04,7.787,7.787,0,0,1-.312-1.083c-.082-.387-.077-.8-.183-1.182a.161.161,0,0,0-.152-.116.064.064,0,0,0-.024,0l-.018,0a.153.153,0,0,0-.11.11,3.874,3.874,0,0,0,.1,1.365,7.854,7.854,0,0,0,.4,1.408,6.289,6.289,0,0,0,.633,1.257c.211.31.567.54.9.266A.079.079,0,0,0-538.555,370.442Z" transform="translate(548.347 -349.152)" fill="#5c3829"/>
        <path id="패스_143" data-name="패스 143" d="M-487.6,369.674a.023.023,0,0,0-.039-.01.9.9,0,0,0-.178.366c-.051.162-.1.325-.153.486a6.283,6.283,0,0,1-.4.968,4.2,4.2,0,0,1-.487.738,7.22,7.22,0,0,1-.588.681c-.039.036,0,.113.054.092a1.964,1.964,0,0,0,.765-.469,3.3,3.3,0,0,0,.552-.81,5.006,5.006,0,0,0,.364-1.006c.044-.175.085-.351.112-.529A1.017,1.017,0,0,0-487.6,369.674Z" transform="translate(517.325 -351.272)" fill="#5c3829"/>
        <path id="패스_144" data-name="패스 144" d="M-526.736,362.051a1.176,1.176,0,0,0-.551-.15,1.968,1.968,0,0,0-.509.018,1.182,1.182,0,0,0-.465.15.627.627,0,0,0-.135.107c-.024,0-.058.046-.077.066a.56.56,0,0,0-.082.11l-.025.059c.012-.024.011-.021,0,.01a.33.33,0,0,0-.018.1.2.2,0,0,0,.142.187.143.143,0,0,0,.073.014q-.066-.015.042,0a.283.283,0,0,0,.091-.009c.033-.005.032-.005,0,0a.235.235,0,0,0,.084-.016h.007a1.593,1.593,0,0,0,.157-.026c.067-.013.13-.03.2-.046.033-.008.066-.015.1-.021l.027,0c.061-.005.121-.011.182-.011a.679.679,0,0,1,.2.012c-.052-.007-.058-.008-.018,0l.05.009c.033.007.066.015.1.023a1.34,1.34,0,0,0,.262.054.341.341,0,0,0,.328-.25A.36.36,0,0,0-526.736,362.051Z" transform="translate(541.084 -346.559)" fill="#462b1d"/>
        <path id="패스_145" data-name="패스 145" d="M-526.3,366.3a.553.553,0,0,0-.773-.135,1.116,1.116,0,0,0-.251.657,1.122,1.122,0,0,0,.2.9.576.576,0,0,0,.393.363.51.51,0,0,0,.386-.045.544.544,0,0,0,.248-.328,2.361,2.361,0,0,0,.061-.484A1.292,1.292,0,0,0-526.3,366.3Z" transform="translate(540.321 -349.085)" fill="#462b1d"/>
        <path id="패스_146" data-name="패스 146" d="M-508.086,360.828a1.173,1.173,0,0,0-.551-.15,1.982,1.982,0,0,0-.508.018,1.182,1.182,0,0,0-.465.15.624.624,0,0,0-.135.107c-.024,0-.059.046-.078.067a.567.567,0,0,0-.082.109l-.025.059c.012-.024.011-.021,0,.01a.331.331,0,0,0-.018.1.2.2,0,0,0,.142.187.142.142,0,0,0,.072.014c-.044-.009-.03-.009.043,0a.282.282,0,0,0,.09-.009c.033-.005.032-.005,0,0a.235.235,0,0,0,.085-.016h.007c.054,0,.1-.017.157-.026s.13-.03.2-.046c.033-.008.066-.015.1-.021l.028,0c.061-.005.121-.011.182-.011a.679.679,0,0,1,.2.012c-.051-.007-.057-.007-.018,0l.049.009c.033.007.066.015.1.023a1.382,1.382,0,0,0,.262.054.343.343,0,0,0,.328-.25A.36.36,0,0,0-508.086,360.828Z" transform="translate(529.763 -345.817)" fill="#462b1d"/>
        <path id="패스_147" data-name="패스 147" d="M-507.65,365.075a.553.553,0,0,0-.773-.135,1.117,1.117,0,0,0-.251.657,1.122,1.122,0,0,0,.2.9.575.575,0,0,0,.393.363.509.509,0,0,0,.385-.045.543.543,0,0,0,.248-.328,2.361,2.361,0,0,0,.061-.484A1.293,1.293,0,0,0-507.65,365.075Z" transform="translate(529 -348.342)" fill="#462b1d"/>
        <path id="패스_148" data-name="패스 148" d="M-512.8,402.919c-.215.007-.316.121-.484.236a2.716,2.716,0,0,1-.424.231,7.484,7.484,0,0,1-1.046.354,10.6,10.6,0,0,1-2.31.374,10.982,10.982,0,0,1-2.3-.119c-.379-.061-.757-.139-1.129-.23-.17-.041-.343-.079-.509-.136a.808.808,0,0,0-.441-.094.138.138,0,0,0-.1.132c-.009.356.5.545.77.642a7.6,7.6,0,0,0,1.192.307,11.188,11.188,0,0,0,2.558.175,11.465,11.465,0,0,0,2.535-.408,8.043,8.043,0,0,0,1.128-.4c.332-.15.817-.376.841-.784A.287.287,0,0,0-512.8,402.919Z" transform="translate(536.797 -371.463)" fill="#355e78"/>
        <path id="패스_149" data-name="패스 149" d="M-542.466,433.477c-.024-.137-.21-.086-.223.03-.107.929-.063,1.88-.123,2.815s-.154,1.881-.274,2.817c-.241,1.886-.567,3.76-.84,5.642q-.815,5.625-1.229,11.3-.115,1.593-.2,3.189-.042.8-.078,1.6-.017.387-.033.774a1.033,1.033,0,0,0,.018.423,1.04,1.04,0,0,0,.2.26.146.146,0,0,0,.2,0,.643.643,0,0,0,.256-.489c.013-.258.02-.516.03-.774q.029-.7.064-1.4.071-1.427.165-2.852c.126-1.9.3-3.8.468-5.693s.389-3.787.628-5.674.542-3.78.765-5.675c.123-1.047.224-2.1.265-3.15A15.1,15.1,0,0,0-542.466,433.477Z" transform="translate(551.329 -389.963)" fill="#355e78"/>
        <path id="패스_150" data-name="패스 150" d="M-515.417,513.251a6.2,6.2,0,0,0-1.354.523c-.423.175-.854.332-1.289.473a21.486,21.486,0,0,1-2.8.7,35.086,35.086,0,0,1-5.742.494,80.394,80.394,0,0,1-12.533-.782q-1.785-.253-3.557-.586c-.534-.1-1.069-.2-1.593-.343s-1.008-.367-1.526-.505a.184.184,0,0,0-.178.305,4.693,4.693,0,0,0,2.625,1.074c1.06.218,2.126.407,3.195.575q3.226.506,6.486.752c2.154.163,4.315.245,6.474.235a39.78,39.78,0,0,0,5.861-.4,22.579,22.579,0,0,0,3.193-.716q.78-.238,1.536-.545a4.1,4.1,0,0,0,1.461-.8A.273.273,0,0,0-515.417,513.251Z" transform="translate(551.666 -438.414)" fill="#355e78"/>
        <path id="패스_151" data-name="패스 151" d="M-472.785,458.293q-.131-1.482-.27-2.964-.278-2.987-.583-5.973c-.411-3.979-.845-7.958-1.337-11.929-.135-1.093-.272-2.186-.43-3.276-.081-.561-.169-1.122-.257-1.682a13.272,13.272,0,0,0-.311-1.668.154.154,0,0,0-.3.041,12.285,12.285,0,0,0,.1,1.5c.047.5.094,1,.143,1.5.1.986.208,1.97.321,2.954.228,1.987.456,3.973.674,5.961q.652,5.964,1.209,11.938.155,1.651.3,3.3c.1,1.124.127,2.281.334,3.391.068.366.628.268.633-.086A29.022,29.022,0,0,0-472.785,458.293Z" transform="translate(509.322 -388.323)" fill="#355e78"/>
        <path id="패스_152" data-name="패스 152" d="M-460.908,506.141a11.027,11.027,0,0,1-1.434.36c-.537.117-1.075.232-1.612.35-.595.131-1.188.267-1.785.392-.3.064-.608.112-.912.172a4.774,4.774,0,0,1-.555.115.067.067,0,0,0-.031-.009c-.09,0-.13.057-.154.138a.178.178,0,0,0,.046.176,1.741,1.741,0,0,0,1.326.141c.547-.081,1.089-.213,1.631-.326,1.065-.222,2.143-.417,3.2-.682a3.021,3.021,0,0,0,.626-.211.861.861,0,0,0,.441-.483C-460.01,505.849-460.742,506.081-460.908,506.141Z" transform="translate(503.933 -434.049)" fill="#355e78"/>
        <path id="패스_153" data-name="패스 153" d="M-553.141,506.263c-.376-.026-.758,0-1.135-.028-.4-.027-.791-.072-1.182-.136q-.678-.111-1.342-.29-.332-.089-.659-.195a1.41,1.41,0,0,0-.595-.137.283.283,0,0,0-.25.416c.191.308.731.389,1.061.487q.571.17,1.154.289a14.269,14.269,0,0,0,2.453.286c.3.009.71.042.874-.276C-552.61,506.383-552.9,506.279-553.141,506.263Z" transform="translate(559.137 -433.716)" fill="#355e78"/>
        <path id="패스_154" data-name="패스 154" d="M-513.588,460.086a5.666,5.666,0,0,1-.3.515c-.1.185-.185.381-.288.565-.2.361-.4.723-.6,1.081a17.226,17.226,0,0,1-1.345,2.059,15.892,15.892,0,0,1-3.576,3.353,15.487,15.487,0,0,1-4.425,2.093,14.168,14.168,0,0,1-2.413.477,8.626,8.626,0,0,1-2.96-.1,9.9,9.9,0,0,1-3.027-1.595c-.529-.35-1.057-.7-1.591-1.043a6.771,6.771,0,0,0-1.639-.914c-.076-.022-.165.073-.111.144a5.875,5.875,0,0,0,1.238,1.067q.727.54,1.462,1.07a13.718,13.718,0,0,0,2.735,1.669,9.781,9.781,0,0,0,5.807.083,16.289,16.289,0,0,0,8.635-5.323,15.985,15.985,0,0,0,1.665-2.367,7.665,7.665,0,0,0,.607-1.3c.08-.233.159-.467.231-.7s.081-.489.141-.733C-513.309,460.049-513.526,459.943-513.588,460.086Z" transform="translate(545.504 -406.123)" fill="#2e7095"/>
        <path id="패스_155" data-name="패스 155" d="M-507.282,547.157q-.027-1.04-.08-2.079c-.035-.693-.089-1.387-.156-2.077a14.716,14.716,0,0,0-.273-2.063c-.038-.155-.249-.107-.262.036a18.651,18.651,0,0,0,0,2.027c.011.66.023,1.321.044,1.981s.036,1.321.051,1.982a6.654,6.654,0,0,0,.144,1.884.188.188,0,0,0,.273.111.85.85,0,0,0,.278-.738C-507.256,547.867-507.273,547.511-507.282,547.157Z" transform="translate(528.631 -455.185)" fill="#3f4e76"/>
        <path id="패스_156" data-name="패스 156" d="M-537.526,521.62a7.2,7.2,0,0,0-.612,1.077,7.625,7.625,0,0,1-.689.99c-.519.635-1.164,1.148-1.7,1.763a.118.118,0,0,0,.114.195,4.361,4.361,0,0,0,2.082-1.507,7.861,7.861,0,0,0,.766-1.073,2.906,2.906,0,0,0,.512-1.25A.278.278,0,0,0-537.526,521.62Z" transform="translate(548.344 -443.467)" fill="#3f4e76"/>
        <path id="패스_157" data-name="패스 157" d="M-481.327,523.677v0a.283.283,0,0,0,0-.06c0-.012,0-.013,0,0l-.006-.047a.244.244,0,0,0-.031-.061c-.035-.057-.078-.109-.117-.164s-.1-.129-.145-.192c.019.025-.01-.014-.013-.018l-.034-.047-.059-.085a3.547,3.547,0,0,1-.209-.358c-.03-.056-.061-.119-.085-.173a.379.379,0,0,0-.139-.211l.053.053a.262.262,0,0,0-.064-.1.324.324,0,0,0-.074-.035.072.072,0,0,0-.072.019.2.2,0,0,0-.063.151.419.419,0,0,0,.007.229c.015.072.034.142.056.211a2.134,2.134,0,0,0,.2.437,1.438,1.438,0,0,0,.292.37,1.405,1.405,0,0,0,.2.147.278.278,0,0,0,.175.04c-.019,0-.007,0,.005,0a.089.089,0,0,0,.036-.008A.076.076,0,0,0-481.327,523.677Z" transform="translate(513.039 -443.852)" fill="#3f4e76"/>
        <path id="패스_158" data-name="패스 158" d="M-535.284,685.938a1.036,1.036,0,0,0-.175-.329l-.257-.36a3.841,3.841,0,0,0-.385-.443,1.2,1.2,0,0,0-.258-.23c-.058-.032-.121-.058-.182-.087a.535.535,0,0,0-.521,0,.508.508,0,0,0-.256.446c.005.061.01.121.016.182a.975.975,0,0,0,.111.374l.041.086a2.946,2.946,0,0,0,.2.394l.248.366a1.94,1.94,0,0,0,.225.3.832.832,0,0,0,.433.211.638.638,0,0,0,.469-.061.589.589,0,0,0,.28-.364A1.084,1.084,0,0,0-535.284,685.938Z" transform="translate(546.377 -542.339)" fill="#355e78"/>
        <path id="패스_159" data-name="패스 159" d="M-530.23,683.935a1.509,1.509,0,0,0-.179-.4,5.558,5.558,0,0,0-.473-.6l-.193-.228a1.669,1.669,0,0,0-.219-.2,1.528,1.528,0,0,0-.292-.219.719.719,0,0,0-.576-.054.582.582,0,0,0-.364.326.528.528,0,0,0,.028.5.6.6,0,0,1,.032.054,1.282,1.282,0,0,0,.133.173l-.1-.128c.095.127.135.289.229.418l.289.4a4.549,4.549,0,0,0,.408.5,1.246,1.246,0,0,0,.307.228.73.73,0,0,0,.377.116l.049,0a.565.565,0,0,0,.1.012.413.413,0,0,0,.138-.025h.014a.231.231,0,0,0,.222-.169l0-.018a.4.4,0,0,0,.055-.118.629.629,0,0,0,.017-.137.8.8,0,0,0,.02-.092A.8.8,0,0,0-530.23,683.935Z" transform="translate(543.496 -540.986)" fill="#355e78"/>
        <g id="그룹_48" data-name="그룹 48" transform="translate(23.236 142.159)">
          <path id="패스_160" data-name="패스 160" d="M-498.771,686.009a.732.732,0,0,0-.271-.317.6.6,0,0,0-.066-.042l-.034-.032a1.972,1.972,0,0,0-.264-.2c-.063-.044-.123-.09-.185-.136-.163-.133-.316-.283-.489-.4-.07-.047-.14-.091-.209-.14a.6.6,0,0,0-.366-.129.727.727,0,0,0-.258.065.5.5,0,0,0-.228.188.626.626,0,0,0-.017.648c.04.074.085.147.129.219a2.9,2.9,0,0,0,.45.521c.127.124.257.247.395.359a1.1,1.1,0,0,0,.223.156,2.186,2.186,0,0,0,.238.1,1.04,1.04,0,0,0,.523.029l.158-.067.134-.1a.653.653,0,0,0,.182-.38A.632.632,0,0,0-498.771,686.009Z" transform="translate(501.24 -684.618)" fill="#355e78"/>
          <path id="패스_161" data-name="패스 161" d="M-500.55,684.761c.02-.009.037-.014.056-.022l.065-.029Z" transform="translate(500.821 -684.674)" fill="#355e78"/>
        </g>
        <g id="그룹_49" data-name="그룹 49" transform="translate(25.053 141.566)">
          <path id="패스_162" data-name="패스 162" d="M-494.485,684.46c-.018-.03-.04-.059-.06-.089a1.758,1.758,0,0,0-.275-.312c-.118-.114-.222-.244-.35-.348-.062-.05-.123-.1-.182-.155a2.006,2.006,0,0,0-.283-.243c-.064-.039-.136-.068-.2-.1a.884.884,0,0,0-.179-.084.478.478,0,0,0-.434.1.562.562,0,0,0-.165.493c0,.035,0,.071.006.107s.009.088.015.132a.92.92,0,0,0,.082.253,2.491,2.491,0,0,0,.288.542,4.364,4.364,0,0,0,.4.45,1.278,1.278,0,0,0,.338.24.924.924,0,0,0,.43.113.967.967,0,0,0,.2-.025.484.484,0,0,0,.167-.076.531.531,0,0,0,.184-.153.52.52,0,0,0,.087-.172c.006-.017.011-.037.016-.053l0-.01a.773.773,0,0,0,.019-.086.821.821,0,0,0-.007-.22A.77.77,0,0,0-494.485,684.46Z" transform="translate(496.616 -683.109)" fill="#355e78"/>
          <path id="패스_163" data-name="패스 163" d="M-490.963,687.127c0,.024.006.046.009.068.006.037.011.075.016.114Z" transform="translate(493.184 -685.548)" fill="#355e78"/>
        </g>
        <path id="패스_164" data-name="패스 164" d="M-425.026,621.484q-.389-1.438-.828-2.862-.879-2.85-1.98-5.622a59.825,59.825,0,0,0-5.611-10.682c-.608-.932-1.227-1.859-1.89-2.753a16.912,16.912,0,0,0-2.164-2.656c-.395-.351-1.143-.02-.949.553a21.855,21.855,0,0,0,1.271,2.672c.431.865.863,1.73,1.284,2.6.838,1.737,1.581,3.453,2.3,5.193,1.484,3.612,2.928,7.247,4.119,10.967q.508,1.586.953,3.191a10.98,10.98,0,0,0,.55,1.771c.047.1.1.2.157.3q-.045-.219.068.112a1.372,1.372,0,0,0,.167.336,1.632,1.632,0,0,0,1.072.729,1.081,1.081,0,0,0,1.138-.241C-424.279,624.3-424.725,622.6-425.026,621.484Z" transform="translate(486.38 -489.13)" fill="#6c9477"/>
        <path id="패스_165" data-name="패스 165" d="M-412.163,616.608a14.563,14.563,0,0,0-.782-3.115,55.565,55.565,0,0,0-4.846-10.928,57.894,57.894,0,0,0-3.635-5.413,23.284,23.284,0,0,0-4.588-4.893c-.444-.323-.9.285-.693.693.436.875,1,1.676,1.5,2.509s1.046,1.662,1.569,2.492q1.553,2.465,2.9,5.058a71.331,71.331,0,0,1,4.569,10.58c.3.91.54,1.845.863,2.747.174.487.3.987.468,1.475.166.468.369,1.092.91,1.241C-412.634,619.409-412.069,617.538-412.163,616.608Z" transform="translate(479.263 -486.341)" fill="#6c9477"/>
        <path id="패스_166" data-name="패스 166" d="M-399.755,609.394q-.157-.739-.334-1.473-.334-1.386-.738-2.754a53.949,53.949,0,0,0-1.878-5.3,47.429,47.429,0,0,0-5.427-10.075,24.626,24.626,0,0,0-4.283-4.767.424.424,0,0,0-.663.511c.844,1.628,1.856,3.162,2.794,4.738s1.848,3.194,2.719,4.82a58.078,58.078,0,0,1,4.194,10.074q.451,1.441.826,2.9.188.732.355,1.467c.061.27.1.555.18.819a2.992,2.992,0,0,0,.507.8c.4.6,1.51.6,1.669-.218a4.977,4.977,0,0,0,.183-.736A3.144,3.144,0,0,0-399.755,609.394Z" transform="translate(470.995 -481.942)" fill="#6c9477"/>
        <g id="그룹_50" data-name="그룹 50" transform="translate(22.656 17.077)">
          <path id="패스_167" data-name="패스 167" d="M-498.407,366.447c-.161-.339-.578.165-.7.287-.622.612-1.213,1.245-1.793,1.9a12.828,12.828,0,0,0-1.8,2.288c-.04.074.045.178.119.123a13.269,13.269,0,0,0,1.824-1.774c.6-.636,1.2-1.264,1.774-1.919l.4-.45C-498.486,366.784-498.323,366.622-498.407,366.447Z" transform="translate(502.716 -366.332)" fill="#e1ebf4"/>
          <path id="패스_168" data-name="패스 168" d="M-496.71,376.2a.348.348,0,0,0-.3-.171,3.462,3.462,0,0,0-1.239.255c-.391.112-.771.25-1.152.393s-.761.29-1.138.442c-.2.079-.394.154-.587.24a1.989,1.989,0,0,0-.424.3c-.055.045-.007.134.056.134a2.23,2.23,0,0,0,.57-.042c.2-.049.406-.106.609-.157q.568-.143,1.138-.272c.382-.086.762-.169,1.141-.266a3.86,3.86,0,0,0,1.2-.384.345.345,0,0,0,.171-.3A.528.528,0,0,0-496.71,376.2Z" transform="translate(502.022 -372.215)" fill="#e1ebf4"/>
        </g>
        <path id="패스_169" data-name="패스 169" d="M-530.3,381.065a2.383,2.383,0,0,0-.432-.144l-.413-.12c-.073-.021-.146-.045-.22-.064a.266.266,0,0,0-.138-.011.711.711,0,0,0-.09.039.1.1,0,0,0-.049.135.368.368,0,0,0,.164.173c.071.031.143.059.214.089l.4.167a2.386,2.386,0,0,0,.4.158c.134.028.355.108.42-.083S-530.18,381.126-530.3,381.065Z" transform="translate(542.938 -357.988)" fill="#e1ebf4"/>
        <path id="패스_170" data-name="패스 170" d="M-527.989,385.533a.164.164,0,0,0-.066-.038.211.211,0,0,0-.108-.006,1.111,1.111,0,0,0-.141.048.644.644,0,0,0-.082.049l-.043.027c-.031.019-.062.038-.092.058a.2.2,0,0,0-.074.121c-.018.059.039.123.127.121h.05l.044,0,.031,0a.217.217,0,0,0,.083-.035l.1-.055c.031-.018.066-.035.1-.055a.464.464,0,0,0,.059-.055.443.443,0,0,0,.036-.036A.1.1,0,0,0-527.989,385.533Z" transform="translate(541.084 -360.88)" fill="#e1ebf4"/>
        <path id="패스_171" data-name="패스 171" d="M-516.9,380.814a1.962,1.962,0,0,0-.772,0c-.227.064-.448.159-.673.231a9.4,9.4,0,0,1-1.525.393,7.107,7.107,0,0,1-1.515.053,9.977,9.977,0,0,1-1.607-.151c-.1-.022-.168.118-.071.168a6.316,6.316,0,0,0,1.538.635,7.392,7.392,0,0,0,1.718.137,6.774,6.774,0,0,0,1.685-.237,3.647,3.647,0,0,0,.83-.331,1.446,1.446,0,0,0,.534-.657A.166.166,0,0,0-516.9,380.814Z" transform="translate(537.748 -358.022)" fill="#e1ebf4"/>
        <path id="패스_172" data-name="패스 172" d="M-516.467,387.939c-.191.027-.384.025-.578.065s-.39.145-.588.2a5.289,5.289,0,0,1-1.106.219,6.23,6.23,0,0,1-2.483-.423c-.107-.038-.176.129-.077.183a6.957,6.957,0,0,0,2.641.869,3.619,3.619,0,0,0,1.316-.1,1.687,1.687,0,0,0,.664-.3,1.64,1.64,0,0,0,.375-.509A.148.148,0,0,0-516.467,387.939Z" transform="translate(536.68 -362.369)" fill="#e1ebf4"/>
      </g>
    </g>
  </g>
</svg>
