<svg xmlns="http://www.w3.org/2000/svg" width="114" height="106" viewBox="0 0 114 106">
  <g id="_1.bundle_icon" data-name="1.bundle_icon" transform="translate(-476 -875)">
    <rect id="사각형_378" data-name="사각형 378" width="114" height="106" transform="translate(476 875)" fill="none"/>
    <g id="번들_icon" transform="translate(333.118 862.484)">
      <path id="패스_17" data-name="패스 17" d="M239.116,50.623a.179.179,0,0,1,.08-.236,4,4,0,0,1,1.914.17,4.68,4.68,0,0,1,3.093,2.119,2.24,2.24,0,0,1,.209,1.186c-.023.364-.1.72-.151,1.03a16.059,16.059,0,0,1-1.744,5.358c-.277.515-.7,1.377-.939,1.874a1.121,1.121,0,0,1-.133.223Z" transform="translate(-1.437 -0.293)" fill="#fd908c" stroke="#000" stroke-miterlimit="10" stroke-width="3" fill-rule="evenodd"/>
      <path id="패스_18" data-name="패스 18" d="M253.84,76.289a.2.2,0,0,0,.274.032,4.859,4.859,0,0,0,.917-2.014,5.079,5.079,0,0,0-.317-4.137,2.235,2.235,0,0,0-1.037-.778,11.249,11.249,0,0,0-1.089-.341,17.513,17.513,0,0,0-6.2-.8c-.658.033-1.734.044-2.355.051a1.27,1.27,0,0,0-.293.028Z" transform="translate(-1.437 -0.443)" fill="#fd908c" stroke="#000" stroke-miterlimit="10" stroke-width="3" fill-rule="evenodd"/>
      <rect id="사각형_295" data-name="사각형 295" width="80.714" height="62.331" rx="3.083" transform="translate(145.882 51.185)" fill="#fff" stroke="#000" stroke-miterlimit="10" stroke-width="3"/>
      <path id="패스_19" data-name="패스 19" d="M160.668,19.516l-2.99,4.243s19.449,7.553,23.65,18.389C181.328,42.148,181.9,28.484,160.668,19.516Z" fill="#fff" stroke="#000" stroke-miterlimit="10" stroke-width="3"/>
      <path id="패스_20" data-name="패스 20" d="M189.65,40.886S191.129,28,203.173,27.364l2.252,4.137A23.056,23.056,0,0,0,189.65,40.886Z" transform="translate(-0.672)" fill="#fff" stroke="#000" stroke-miterlimit="10" stroke-width="3"/>
      <rect id="사각형_296" data-name="사각형 296" width="15.395" height="60.174" transform="translate(177.033 52.269)" fill="#fd908c"/>
      <line id="선_19" data-name="선 19" y2="54.159" transform="translate(192.294 51.185)" fill="none" stroke="#000" stroke-miterlimit="10" stroke-width="3"/>
      <line id="선_20" data-name="선 20" y2="62.331" transform="translate(177.914 51.185)" fill="none" stroke="#000" stroke-miterlimit="10" stroke-width="3"/>
      <rect id="사각형_297" data-name="사각형 297" width="80.574" height="10.142" transform="translate(146.021 65.695)" fill="#fff" stroke="#000" stroke-miterlimit="10" stroke-width="3"/>
      <rect id="사각형_298" data-name="사각형 298" width="16.164" height="73.926" rx="3.084" transform="matrix(0.888, -0.46, 0.46, 0.888, 202.916, 42.398)" fill="#fff" stroke="#000" stroke-miterlimit="10" stroke-width="3"/>
      <path id="패스_21" data-name="패스 21" d="M220.378,61.61l-2-2.208a.435.435,0,0,1,.127-.679c1.382-.712,5.218-1.4,11.4.537l6.2,2.23-.221,4.123s-11.738-.035-15.823,1.289a.509.509,0,0,1-.629-.686S222.024,63.432,220.378,61.61Z" transform="translate(-1.136 -0.353)" fill="#fff" stroke="#000" stroke-miterlimit="10" stroke-width="3"/>
      <path id="패스_22" data-name="패스 22" d="M236.8,70.667s-7.047,7.339-11.642,9.6a1.119,1.119,0,0,0-.615,1.194c.218,1.278,1.414,3.6,6.934,5.021a2.387,2.387,0,0,0,1.348-.012c1.426-.481,3.476-2.4,5.624-8.208l1.613-6.779Z" transform="translate(-1.437 -0.511)" fill="#fff" stroke="#000" stroke-miterlimit="10" stroke-width="3" fill-rule="evenodd"/>
      <path id="패스_23" data-name="패스 23" d="M236.868,64.537s-5.83-7.107-7-8.126c-.045-.039-.081-.065-.129-.1l-.017-.012a4.026,4.026,0,0,1,.559-6.873,10.051,10.051,0,0,1,5.907-.961,2.2,2.2,0,0,1,1.527.974,12.809,12.809,0,0,1,1.791,5.583s1.251,5.886.172,8.343S236.868,64.537,236.868,64.537Z" transform="translate(-1.437 -0.29)" fill="#fff" stroke="#000" stroke-miterlimit="10" stroke-width="3"/>
      <path id="패스_24" data-name="패스 24" d="M238.43,70.049s3.272,8.306,3.671,10a2.8,2.8,0,0,1,.051.316l0,.027a3.981,3.981,0,0,0,6.264,2.77,10.4,10.4,0,0,0,3.241-3.621,3.813,3.813,0,0,0-.327-3.978,13.918,13.918,0,0,0-3.31-3.185s-4.532-3.958-7.2-4.212S238.43,70.049,238.43,70.049Z" transform="translate(-1.437 -0.485)" fill="#fff" stroke="#000" stroke-miterlimit="10" stroke-width="3"/>
      <path id="패스_25" data-name="패스 25" d="M235.871,65.792s.032-.414,5.067-1.8a16.59,16.59,0,0,1,1.878,2.908.191.191,0,0,1-.008.2,5.928,5.928,0,0,1-5.2,2.353S235.838,68.648,235.871,65.792Z" transform="translate(-1.437 -0.392)" fill="#fd908c" stroke="#000" stroke-miterlimit="10" stroke-width="1"/>
    </g>
  </g>
</svg>
