<svg xmlns="http://www.w3.org/2000/svg" width="114" height="106" viewBox="0 0 114 106">
  <g id="_3.seats_icon" data-name="3.seats_icon" transform="translate(-744 -875)">
    <rect id="사각형_378" data-name="사각형 378" width="114" height="106" transform="translate(744 875)" fill="none"/>
    <g id="좌석_icon" transform="translate(348.762 851.498)">
      <path id="패스_236" data-name="패스 236" d="M404.487,40.631,419.941,98.14s1.28,7.683,7.3,7.683h53.653a5.635,5.635,0,0,0,5.634-5.634h0V92a5.892,5.892,0,0,0-5.89-5.892h0l-41.176-.341L423.942,36.735a11.481,11.481,0,0,0-4.388-6.11,4.84,4.84,0,0,0-.606-.311c-1.8-.848-4.909-.595-8.963,1.079,0,0-6.05,1.6-5.8,7.4A8.462,8.462,0,0,0,404.487,40.631Z" fill="#fff" stroke="#000" stroke-miterlimit="10" stroke-width="3"/>
      <path id="사각형_372" data-name="사각형 372" d="M2.316,0H36.762A3.958,3.958,0,0,1,40.72,3.958v0a3.958,3.958,0,0,1-3.958,3.958H2.316A2.316,2.316,0,0,1,0,5.6V2.316A2.316,2.316,0,0,1,2.316,0Z" transform="translate(424.991 63.874)" fill="#fd908c" stroke="#000" stroke-miterlimit="10" stroke-width="3"/>
      <rect id="사각형_373" data-name="사각형 373" width="10.667" height="25.082" rx="5.333" transform="translate(416.3 34.112) rotate(-16.582)" fill="#fd908c" stroke="#000" stroke-miterlimit="10" stroke-width="3"/>
      <rect id="사각형_374" data-name="사각형 374" width="24.83" height="35.176" rx="12.415" transform="translate(475.472 27.021)" fill="#fff" stroke="#000" stroke-miterlimit="10" stroke-width="3"/>
      <rect id="사각형_375" data-name="사각형 375" width="17.709" height="23.106" rx="8.854" transform="translate(479.032 34.895)" fill="#fff" stroke="#000" stroke-miterlimit="10" stroke-width="3"/>
      <path id="사각형_376" data-name="사각형 376" d="M12.415,0h0A12.415,12.415,0,0,1,24.83,12.415v.747a0,0,0,0,1,0,0H0a0,0,0,0,1,0,0v-.747A12.415,12.415,0,0,1,12.415,0Z" transform="translate(475.472 27.021)" fill="#fff" stroke="#000" stroke-miterlimit="10" stroke-width="3"/>
      <line id="선_40" data-name="선 40" x2="5.259" transform="translate(485.257 36.39)" fill="#fff" stroke="#000" stroke-miterlimit="10" stroke-width="3"/>
      <line id="선_41" data-name="선 41" y1="14.105" x2="16.048" transform="translate(480.243 40.183)" fill="#fff" stroke="#000" stroke-miterlimit="10" stroke-width="3"/>
      <path id="패스_237" data-name="패스 237" d="M470.534,118.74H434.787s-2.594-2.157-2.352-5.146a2.892,2.892,0,0,1,2.971-2.537h40.341a2.188,2.188,0,0,1,2.269,2.1V122.4a2.188,2.188,0,0,1-2.269,2.1H437.2a2.183,2.183,0,0,1-2.268-2.139l.057-2.663Z" fill="#fff" stroke="#000" stroke-miterlimit="10" stroke-width="3"/>
    </g>
  </g>
</svg>
