<svg xmlns="http://www.w3.org/2000/svg" width="114" height="106" viewBox="0 0 114 106">
  <g id="_5.dutyfeee_icon" data-name="5.dutyfeee_icon" transform="translate(-862 -875)">
    <rect id="사각형_378" data-name="사각형 378" width="114" height="106" transform="translate(862 875)" fill="none"/>
    <g id="면세품_icon" transform="translate(588.769 739.471)">
      <path id="패스_226" data-name="패스 226" d="M348.966,176.83V164.272a14.913,14.913,0,0,0-5.089-10.843,12.473,12.473,0,0,0-8.706-3.368h-4.6" fill="none" stroke="#000" stroke-miterlimit="10" stroke-width="3"/>
      <path id="패스_227" data-name="패스 227" d="M358.553,167.958v68.116a.339.339,0,0,0,.339.339h9.222a4.379,4.379,0,0,0,4.379-4.38V168.452a.339.339,0,0,0-.461-.316l-4.709,1.82a.342.342,0,0,1-.236,0l-5.65-2" fill="#fd908c" stroke="#000" stroke-miterlimit="10" stroke-width="3"/>
      <path id="사각형_371" data-name="사각형 371" d="M7.056,0H77.468a0,0,0,0,1,0,0V58.492a9.963,9.963,0,0,1-9.963,9.963H9.963A9.963,9.963,0,0,1,0,58.492V7.056A7.056,7.056,0,0,1,7.056,0Z" transform="translate(283.969 167.958)" fill="#fff" stroke="#000" stroke-miterlimit="10" stroke-width="3"/>
      <circle id="타원_21" data-name="타원 21" cx="3.614" cy="3.614" r="3.614" transform="translate(303.828 174.082)" fill="#fff" stroke="#000" stroke-miterlimit="10" stroke-width="3"/>
      <circle id="타원_22" data-name="타원 22" cx="3.614" cy="3.614" r="3.614" transform="translate(337.903 174.082)" fill="#fff" stroke="#000" stroke-miterlimit="10" stroke-width="3"/>
      <path id="패스_228" data-name="패스 228" d="M307.442,177.7V164.614a15.545,15.545,0,0,1,5.354-11.88,16.351,16.351,0,0,1,10.941-3.788,17.927,17.927,0,0,1,11.221,3.617c3.652,2.806,6.559,6.87,6.559,11.646V177.7" fill="none" stroke="#000" stroke-miterlimit="10" stroke-width="3"/>
      <g id="그룹_76" data-name="그룹 76">
        <g id="그룹_75" data-name="그룹 75">
          <g id="그룹_74" data-name="그룹 74">
            <path id="패스_229" data-name="패스 229" d="M313.245,207.011l-.586,2.335a1.939,1.939,0,0,0-2.036-1.682h-1.029l-1.339,5.378h.022a3.158,3.158,0,0,0,2.445-1.306l-.818,3.276a1.741,1.741,0,0,0-1.793-1.306h-.022l-.365,1.461a2.061,2.061,0,0,0-.056.819,1.773,1.773,0,0,0,.255.708h-4.459a3.113,3.113,0,0,0,.962-1.527l1.54-6.18a2.732,2.732,0,0,1-1.278-.421.007.007,0,0,1,.005-.012,2.455,2.455,0,0,0,.337.023,2.124,2.124,0,0,0,1.094-.28h0a3.32,3.32,0,0,1-.485.037,3.268,3.268,0,0,1-.643-.064,2.644,2.644,0,0,1-.908-.344,1.5,1.5,0,0,1-.185-.136c.031.01.053.014.085.022l.053.012.009,0a2.99,2.99,0,0,0,.305.045c.06.005.122.008.184.008a1.994,1.994,0,0,0,1.023-.259,3.15,3.15,0,0,1-.339.018,3.2,3.2,0,0,1-.871-.119,2.965,2.965,0,0,1-.385-.139l-.023-.012a2.3,2.3,0,0,1-.374-.217l-.005,0c-.031-.023-.061-.046-.09-.07s-.068-.057-.1-.086-.053-.052-.078-.079a.157.157,0,0,1-.026-.033l.087.009.117.013.23.022.069.006.236.019.052,0c.116.008.243.017.378.024Z" fill="#c02717"/>
            <path id="패스_230" data-name="패스 230" d="M318.313,213.85l.8-3.187.966-.664h-5.137a4.574,4.574,0,0,0-4.183,3.353,2.523,2.523,0,0,0,2.512,3.342h4.913a1.741,1.741,0,0,1-.243-.708,2.109,2.109,0,0,1,.055-.83Zm-3.84,2.191a.825.825,0,0,1-.819-1.1l.786-3.187a1.5,1.5,0,0,1,1.372-1.1Z" fill="#c02717"/>
            <path id="패스_231" data-name="패스 231" d="M322.716,215.156l2.025-8.145h-3.873a1.771,1.771,0,0,1,.255.709,2.28,2.28,0,0,1-.056.818l-1.649,6.618a3.081,3.081,0,0,1-.962,1.538H322.9a1.741,1.741,0,0,1-.243-.708A2.128,2.128,0,0,1,322.716,215.156Z" fill="#c02717"/>
            <path id="패스_232" data-name="패스 232" d="M328.392,211.316a2.107,2.107,0,0,0-.575,1,1.4,1.4,0,0,0,.077.985,1.249,1.249,0,0,0,1.151.652,2.241,2.241,0,0,0,2.058-1.637,1.52,1.52,0,0,0,.011-.742,1.193,1.193,0,0,0-.254-.5.613.613,0,0,1-.067-.088,2.562,2.562,0,0,0-2.124-.985h-1a4.585,4.585,0,0,0-4.183,3.353,2.53,2.53,0,0,0,2.523,3.342h3.674l.332-1.339.243-1a3.578,3.578,0,0,1-2.877,1.682h-.719a.431.431,0,0,1-.343-.166.454.454,0,0,1-.067-.387l1.063-4.283a.754.754,0,0,1,.686-.542.428.428,0,0,1,.354.155.464.464,0,0,1,.066.387Z" fill="#c02717"/>
            <path id="패스_233" data-name="패스 233" d="M336.292,210h-1a4.574,4.574,0,0,0-4.183,3.342,2.536,2.536,0,0,0,2.512,3.353h1a4.585,4.585,0,0,0,4.183-3.353A2.523,2.523,0,0,0,336.292,210Zm-.254,1.206-1.063,4.271a.752.752,0,0,1-.686.554.416.416,0,0,1-.409-.554l1.062-4.271a.752.752,0,0,1,.686-.553A.412.412,0,0,1,336.038,211.205Z" fill="#c02717"/>
            <path id="패스_234" data-name="패스 234" d="M346.427,210.973A2.6,2.6,0,0,0,344.3,210H339.39a1.939,1.939,0,0,1,.188,1.527l-.9,3.63a3.187,3.187,0,0,1-.963,1.538h4.448a1.734,1.734,0,0,1-.243-.72,2.088,2.088,0,0,1,.055-.818l1.118-4.5a.825.825,0,0,1,.819,1.1l-.211.841-.553,2.236a1.411,1.411,0,0,0,1.394,1.87h2.014a1.746,1.746,0,0,1-.254-.72,2.32,2.32,0,0,1,.055-.818l.454-1.826c.011-.011.011-.022.011-.044l.011-.045A2.745,2.745,0,0,0,346.427,210.973Z" fill="#c02717"/>
          </g>
        </g>
      </g>
      <path id="패스_235" data-name="패스 235" d="M332.6,196.075c-.041-.068-.087-.133-.131-.2a5.052,5.052,0,0,0-2.5-2c-.124-.046-.252-.086-.383-.125l-.038-.012a6.925,6.925,0,0,0-1.636-.249,9.165,9.165,0,0,0-1.065.021c-.149.011-.3.021-.451.039-.331.039-.665.072-1,.1-.611.057-1.225.1-1.837.134-.491.027-.981.048-1.467.063-2.318.07-4.554.007-6.411-.094-.556-.031-1.081-.064-1.561-.1l-.216-.016c-.348-.026-.674-.053-.971-.078l-.288-.026c-.371-.033-.688-.064-.949-.091l-.481-.052c-.208-.024-.363-.038-.363-.038a.675.675,0,0,0,.111.136q.154.167.322.324c.13.123.268.242.411.357.121.1.245.2.374.289l.02.014a9.474,9.474,0,0,0,1.542.895l.1.048a11.379,11.379,0,0,0,1.586.574,13.154,13.154,0,0,0,3.6.494,13.68,13.68,0,0,0,1.4-.074,8.252,8.252,0,0,1-4.223,1.067c-.259,0-.513-.011-.763-.031-.429-.044-.851-.1-1.26-.187l-.037-.008-.216-.049c-.132-.033-.226-.052-.353-.091a6.243,6.243,0,0,0,.765.559,10.865,10.865,0,0,0,3.748,1.422,13.338,13.338,0,0,0,4.66.112,8.788,8.788,0,0,1-4.518,1.158,10.045,10.045,0,0,1-1.394-.1.028.028,0,0,0-.019.051,11.607,11.607,0,0,0,6.364,1.788,12.768,12.768,0,0,0,2.822-.317l.008.018a10.47,10.47,0,0,1-3.954,1.24.031.031,0,0,0,0,.06,10.982,10.982,0,0,0,2.495.286,9.544,9.544,0,0,0,2.086-.112,3.616,3.616,0,0,0,.772-.267,2.327,2.327,0,0,0,1.276-2.7,2.126,2.126,0,0,0-.15-.594l0-.013h0a3.19,3.19,0,0,0-.918-1.183,2.125,2.125,0,0,0-1.062-.5,4.729,4.729,0,0,0-.7-.109,7.541,7.541,0,0,0-1.424.024s-.261-1.692,2.924-1.877h.007a4.717,4.717,0,0,1,1.812-.757l.012,0a4.25,4.25,0,0,1,3.785,1.24C332.771,196.381,332.689,196.225,332.6,196.075Z" fill="#c02717"/>
    </g>
  </g>
</svg>
