<svg xmlns="http://www.w3.org/2000/svg" width="114" height="106" viewBox="0 0 114 106">
  <g id="_6.oneclick_icon" data-name="6.oneclick_icon" transform="translate(-1146 -875)">
    <rect id="사각형_378" data-name="사각형 378" width="114" height="106" transform="translate(1146 875)" fill="none"/>
    <g id="원클릭_icon" transform="translate(744.658 741.981)">
      <path id="패스_224" data-name="패스 224" d="M489.389,155.919h0c.006-.152.012-.305.012-.459a11.7,11.7,0,0,0-11.633-11.527,11.975,11.975,0,0,0-10.578,6.876h0a11.975,11.975,0,0,0-10.578-6.876,11.7,11.7,0,0,0-11.633,11.527c0,.154.006.307.012.459h0s-.656,7.336,7.507,15.345a186.4,186.4,0,0,0,14.695,12.806,186.409,186.409,0,0,0,14.7-12.806C490.046,163.255,489.389,155.919,489.389,155.919Z" fill="#fd908c" stroke="#000" stroke-miterlimit="10" stroke-width="3"/>
      <path id="패스_225" data-name="패스 225" d="M454.061,207.4l25.2-1.489c6.6-.806,5.1-7.49,5.1-7.49-.021-2.775-2.554-5.005-5.657-4.981l-22.048.437c-.537,0-.729.147-1.012-.261-2.9-4.2-9.632-7.5-15.663-7-7.3.607-13.162,5.957-13.7,12.491a12.957,12.957,0,0,0,5.78,11.7h0a3.738,3.738,0,0,0-.4,1.7l.073,9.529a4.388,4.388,0,0,0,4.643,4.089l49.2-.376a4.979,4.979,0,0,0,2.533-.7,9.094,9.094,0,0,0,6.931-4.537l12.176-22.648c2.178-4.051.274-8.909-4.253-10.849l-.8-.342c-4.526-1.941-9.962-.23-12.14,3.821l-5.659,7.924" fill="#fff" stroke="#000" stroke-miterlimit="10" stroke-width="3"/>
      <rect id="사각형_370" data-name="사각형 370" width="18.067" height="45.743" rx="9.033" transform="translate(408.57 190.047) rotate(-15.605)" fill="#fd908c" stroke="#000" stroke-miterlimit="10" stroke-width="3"/>
    </g>
  </g>
</svg>
