<svg id="footer_logo" xmlns="http://www.w3.org/2000/svg" width="142.118" height="31.953" viewBox="0 0 142.118 31.953">
  <path id="패스_176" data-name="패스 176" d="M-174,197.173l-1.91,7.6a6.312,6.312,0,0,0-6.629-5.476h-3.351l-4.359,17.51h.072a10.291,10.291,0,0,0,7.963-4.251l-2.666,10.665a5.666,5.666,0,0,0-5.837-4.251h-.072l-1.189,4.756a6.745,6.745,0,0,0-.18,2.666,5.727,5.727,0,0,0,.829,2.305h-14.519a10.1,10.1,0,0,0,3.134-4.971l5.014-20.12a8.911,8.911,0,0,1-4.161-1.371.022.022,0,0,1,.015-.04,8,8,0,0,0,1.1.076,6.933,6.933,0,0,0,3.562-.912h0a10.568,10.568,0,0,1-1.578.121,10.576,10.576,0,0,1-2.1-.209,8.564,8.564,0,0,1-2.955-1.121,5.085,5.085,0,0,1-.6-.441c.1.03.174.046.279.072l.171.039.029.006c.322.066.655.113.993.148.2.015.4.024.6.024a6.507,6.507,0,0,0,3.33-.842,10.805,10.805,0,0,1-1.106.059,10.361,10.361,0,0,1-2.836-.39,8.994,8.994,0,0,1-1.25-.453l-.078-.038a7.444,7.444,0,0,1-1.216-.706l-.016-.01c-.1-.073-.2-.15-.3-.228-.112-.091-.221-.185-.323-.282s-.172-.168-.254-.255a.51.51,0,0,1-.088-.107s.122.011.286.029l.379.041c.205.021.455.046.748.072l.228.02c.234.02.491.041.766.061l.17.013c.379.028.792.053,1.231.078Z" transform="translate(206.48 -196.746)" fill="#b11310"/>
  <path id="패스_177" data-name="패스 177" d="M-153.666,221.061l2.594-10.377,3.144-2.162h-16.727c-6.017,0-12.142,4.9-13.619,10.917-1.513,6.017,2.162,10.88,8.179,10.88h16a5.665,5.665,0,0,1-.793-2.305,6.969,6.969,0,0,1,.18-2.7Zm-12.5,7.134a2.687,2.687,0,0,1-2.666-3.568l2.559-10.377a4.873,4.873,0,0,1,4.467-3.567Z" transform="translate(202.644 -198.367)" fill="#b11310"/>
  <path id="패스_178" data-name="패스 178" d="M-135.273,223.759l6.594-26.518h-12.61a5.722,5.722,0,0,1,.829,2.306,7.473,7.473,0,0,1-.18,2.666l-5.368,21.546a10.051,10.051,0,0,1-3.135,5.008h14.483a5.678,5.678,0,0,1-.793-2.305A6.969,6.969,0,0,1-135.273,223.759Z" transform="translate(198.588 -196.814)" fill="#b11310"/>
  <path id="패스_179" data-name="패스 179" d="M-114.227,212.81a6.889,6.889,0,0,0-1.874,3.242,4.576,4.576,0,0,0,.253,3.207,4.065,4.065,0,0,0,3.747,2.126,7.3,7.3,0,0,0,6.7-5.333,4.988,4.988,0,0,0,.036-2.414,3.868,3.868,0,0,0-.829-1.621,2.036,2.036,0,0,1-.216-.288,8.348,8.348,0,0,0-6.918-3.207h-3.242c-6.017,0-12.106,4.9-13.619,10.917-1.477,6.017,2.162,10.88,8.215,10.88h11.962l1.081-4.359.792-3.242a11.654,11.654,0,0,1-9.368,5.477h-2.342a1.4,1.4,0,0,1-1.117-.541,1.482,1.482,0,0,1-.216-1.262l3.459-13.943a2.46,2.46,0,0,1,2.234-1.765,1.4,1.4,0,0,1,1.153.5,1.508,1.508,0,0,1,.216,1.261Z" transform="translate(196.024 -198.367)" fill="#b11310"/>
  <path id="패스_180" data-name="패스 180" d="M-84.543,208.522h-3.242c-6.017,0-12.106,4.864-13.619,10.881-1.477,6.017,2.162,10.916,8.179,10.916h3.242c6.017,0,12.107-4.9,13.619-10.916S-78.525,208.522-84.543,208.522Zm-.829,3.927-3.459,13.907a2.448,2.448,0,0,1-2.233,1.8,1.354,1.354,0,0,1-1.333-1.8l3.459-13.907a2.45,2.45,0,0,1,2.234-1.8A1.339,1.339,0,0,1-85.372,212.449Z" transform="translate(192.062 -198.367)" fill="#b11310"/>
  <path id="패스_181" data-name="패스 181" d="M-48.056,211.693a8.473,8.473,0,0,0-6.918-3.171h-16a6.308,6.308,0,0,1,.613,4.972l-2.919,11.818a10.362,10.362,0,0,1-3.134,5.008h14.483a5.655,5.655,0,0,1-.793-2.341,6.788,6.788,0,0,1,.18-2.666l3.639-14.664a2.686,2.686,0,0,1,2.666,3.568l-.685,2.738-1.8,7.278c-.829,3.35,1.189,6.088,4.539,6.088h6.557a5.7,5.7,0,0,1-.829-2.341,7.545,7.545,0,0,1,.18-2.666l1.477-5.945c.036-.036.036-.072.036-.144l.036-.144A8.944,8.944,0,0,0-48.056,211.693Z" transform="translate(188.576 -198.367)" fill="#b11310"/>
</svg>
